<svg width="370" height="379" viewBox="0 0 370 379" fill="none" xmlns="http://www.w3.org/2000/svg">
<path d="M63.5684 321.337L68.171 327.775L76.0544 328.472L69.6162 333.075L68.9194 340.958L64.3168 334.52L56.4333 333.823L62.8715 329.221L63.5684 321.337Z" fill="#4C95C2"/>
<path d="M122.129 15.128L124.531 55.5443L156.775 80.0299L116.359 82.4313L91.8735 114.676L89.4721 74.2595L57.2275 49.774L97.6439 47.3725L122.129 15.128Z" fill="#4C95C2"/>
<path d="M327.334 288.216L340.27 306.482L362.557 308.552L344.291 321.487L342.221 343.774L329.285 325.508L306.999 323.438L325.264 310.502L327.334 288.216Z" fill="#4C95C2"/>
<path d="M49.3142 162.733L41.8593 179.269L49.559 195.691L33.0239 188.236L16.6013 195.936L24.0562 179.401L16.3564 162.978L32.8916 170.433L49.3142 162.733Z" fill="#4C95C2"/>
<path d="M195.935 134.03L196.066 155.007L212.077 168.563L191.099 168.694L177.544 184.704L177.412 163.727L161.402 150.171L182.38 150.04L195.935 134.03Z" fill="#4C95C2"/>
<path d="M136.916 133.714L136.718 143.997L144.395 150.841L134.112 150.643L127.267 158.32L127.466 148.037L119.789 141.193L130.072 141.391L136.916 133.714Z" fill="#4C95C2"/>
<path d="M265.223 330.243L265.315 344.845L276.458 354.28L261.857 354.371L252.422 365.515L252.331 350.914L241.187 341.479L255.788 341.387L265.223 330.243Z" fill="#4C95C2"/>
<path d="M168.318 269.705C169.825 270.35 171.648 270.795 173.28 271.067C183.186 272.706 191.627 271.577 201.321 270.128C201.701 270.071 202.089 269.848 202.448 269.708C207.887 274.076 214.918 278.34 221.304 281.159C221.283 284.02 221.591 287.162 222.485 289.88C222.664 290.421 223.41 292.171 223.69 292.613C223.109 292.523 222.366 292.437 221.839 292.204C217.688 290.382 210.229 285.752 206.864 282.589C206.383 282.138 206.053 281.327 205.433 280.922C205.142 281.012 205.364 281.431 205.433 281.636C206.563 285.035 207.822 288.722 208.654 292.132C210.699 300.513 211.535 309.137 211.051 317.79C210.771 322.8 208.999 329.061 209.601 334.01C209.749 335.222 211.481 338.184 211.998 339.726C212.26 340.508 212.963 342.33 212.881 343.043C212.751 344.162 211.438 344.015 211.306 344.169C211.094 344.41 211.603 345.798 210.947 346.314C210.269 346.848 208.841 346.296 208.091 346.561C207.521 346.762 207.485 348.946 205.382 348.258C202.509 347.314 200.496 345.07 198.63 342.954C198.508 339.891 198.049 336.832 197.909 333.781C197.751 330.345 197.59 326.479 197.934 323.073C198.128 321.143 199.104 320.781 200.779 320.042C201.034 319.695 198.975 317.701 198.526 317.683C198.286 317.672 197.938 317.869 197.576 317.88C196.263 317.927 196.79 318.124 196.593 318.153C196.298 318.196 195.369 317.636 194.447 317.647C191.728 317.668 188.589 318.454 185.851 318.626C185.109 318.673 183.207 318.328 182.551 318.436C182.31 318.475 182.174 318.791 182.041 318.855C181.851 318.945 182.023 318.454 181.765 318.382C180.455 318.02 176.409 317.719 174.891 317.65C173.739 317.6 172.774 318.246 171.906 317.428C171.931 318.45 170.851 317.306 169.919 317.891C169.836 317.941 168.767 319.35 168.77 319.447C168.839 321.129 170.984 320.444 171.181 322.312C171.544 325.737 171.246 329.406 171.429 332.802L170.464 343.908C169.215 345.184 165.409 348.444 163.662 348.455C162.062 348.466 162.162 346.78 161.832 346.572C161.405 346.307 159.762 346.773 159.005 346.414C158.072 345.97 158.413 344.356 158.262 344.173C157.982 343.832 156.752 344.528 156.852 342.606C156.989 339.981 159.697 336.449 159.966 334.25C160.494 329.926 159.407 325.049 159.005 320.763C159.751 320.709 160.576 320.419 161.211 320.035C161.789 319.687 163.909 317.109 164.354 316.442C166.162 313.738 167.899 310.227 166.987 306.939C166.783 306.207 165.326 304.676 164.684 304.231C163.192 303.191 160.964 303.166 159.249 303.582C159.385 302.438 159.181 301.144 159.561 299.96L162.234 287.599C160.835 290.332 159.769 293.315 158.273 295.998C158.162 296.199 157.907 296.238 157.749 296.489C157.509 296.873 157.279 297.805 157.039 298.035C156.798 298.268 156.185 298.282 156.142 298.343C156.081 298.426 156.483 299.401 155.873 300.333C155.439 301 154.467 302.051 154.029 302.772C152.167 305.842 150.319 308.703 148.364 311.68C147.919 312.354 146.821 312.763 146.832 314.079C145.914 314.796 144.852 316.058 143.653 315.047C142.782 314.308 143.643 312.404 143.467 311.852C143.287 311.278 142.376 311.522 142.161 310.758C141.623 308.85 142.9 306.164 143.757 304.443C149.756 292.362 159.511 279.735 168.311 269.701L168.318 269.705Z" fill="#F3D5E6"/>
<path d="M170.464 343.904L171.429 332.798C171.242 329.399 171.544 325.734 171.181 322.309C170.984 320.441 168.839 321.126 168.771 319.444C168.767 319.347 169.836 317.938 169.919 317.887C170.848 317.303 171.928 318.447 171.906 317.425C172.774 318.242 173.743 317.597 174.891 317.647C176.409 317.715 180.455 318.016 181.765 318.379C182.027 318.45 181.851 318.945 182.041 318.852C182.17 318.791 182.31 318.472 182.551 318.432C183.207 318.328 185.109 318.669 185.851 318.623C188.589 318.45 191.731 317.665 194.447 317.644C195.369 317.636 196.302 318.192 196.593 318.149C196.79 318.12 196.263 317.923 197.576 317.877C197.938 317.862 198.286 317.669 198.526 317.679C198.975 317.697 201.034 319.688 200.78 320.039C199.104 320.778 198.128 321.14 197.935 323.069C197.59 326.472 197.752 330.342 197.909 333.777C198.049 336.829 198.509 339.888 198.631 342.95C198.598 342.915 198.239 342.925 198.053 342.699C193.378 337.012 191.864 328.427 191.71 321.237C187.042 321.854 182.533 321.854 177.865 321.237C177.991 329.126 176.104 338.131 170.467 343.904H170.464Z" fill="#B895CD"/>
<path d="M221.304 281.16C225.792 283.143 230.105 283.856 234.614 285.391C235.698 285.76 236.785 286.076 236.839 287.485C236.864 288.192 236.336 288.794 236.39 289.106C236.545 290.01 237.872 290.401 237.481 292.441C237.201 293.904 234.557 293.671 234.435 293.8C234.385 293.854 234.485 294.622 234.195 295.231C232.404 295.299 230.761 295.253 229.025 294.794C228.462 294.643 228.139 294.259 227.762 294.148C226.65 293.818 224.386 293.689 223.694 292.606C223.414 292.169 222.668 290.415 222.488 289.874C221.595 287.155 221.283 284.014 221.308 281.152L221.304 281.16Z" fill="#E595C1"/>
<path d="M159.245 303.583C160.964 303.167 163.188 303.192 164.68 304.232C165.323 304.676 166.779 306.208 166.984 306.939C167.898 310.228 166.162 313.738 164.35 316.442C163.905 317.106 161.785 319.684 161.207 320.036C160.572 320.419 159.747 320.706 159.001 320.764C158.836 318.988 158.524 316.604 158.524 314.918V309.191C158.524 308.248 158.667 306.297 158.764 305.254C158.815 304.702 159.198 303.956 159.241 303.583H159.245Z" fill="#E595C1"/>
<path d="M208.655 292.132C207.822 288.718 206.563 285.035 205.433 281.636C205.365 281.431 205.142 281.012 205.433 280.922C206.057 281.327 206.384 282.138 206.864 282.589C210.229 285.752 217.688 290.378 221.839 292.204C222.366 292.437 223.113 292.523 223.69 292.612C224.379 293.695 226.647 293.825 227.759 294.154C228.135 294.266 228.462 294.649 229.022 294.8C230.758 295.259 232.405 295.306 234.191 295.237C233.409 296.876 229.736 296.525 228.096 296.439C221.391 296.095 215.091 293.735 208.655 292.136V292.132Z" fill="#B895CD"/>
<path d="M159.245 303.583C159.202 303.952 158.818 304.702 158.768 305.254C155.902 308.69 152.827 311.953 149.688 315.145C148.741 315.916 146.846 315.388 146.836 314.083C146.825 312.767 147.923 312.358 148.367 311.684C150.323 308.708 152.17 305.846 154.032 302.776C154.47 302.055 155.442 301.005 155.876 300.338C156.486 299.402 156.084 298.43 156.145 298.347C156.189 298.29 156.802 298.276 157.042 298.039C157.283 297.806 157.509 296.877 157.753 296.493C157.911 296.239 158.165 296.203 158.277 296.002C159.769 293.32 160.835 290.34 162.237 287.604L159.565 299.965C159.184 301.148 159.385 302.446 159.252 303.587L159.245 303.583Z" fill="#B895CD"/>
<path d="M234.03 194.66C232.232 191.06 230.033 187.118 227.586 183.923C228.207 183.396 228.828 182.858 229.38 182.256C236.236 174.793 242.751 166.857 250.257 159.943C251.247 159.032 252.657 158.24 253.615 157.329C254.12 156.848 255.649 155.235 255.448 154.625C255.437 154.589 254.895 154.116 254.856 154.105C253.231 153.772 251.247 156.264 249.761 157.06C248.373 157.802 247.91 157.426 246.507 158.702C240.437 164.218 233.639 170.508 228.286 176.869C227.202 178.157 226.198 179.469 225.197 180.821C223.471 178.863 220.841 176.371 218.753 174.617C219.048 166.986 223.869 157.845 232.566 158.125C235.436 149.705 240.954 141.561 248.61 136.824C253.328 133.901 257.834 132.137 263.233 134.572C275.255 139.987 271.029 156.762 263.986 164.602C261.141 167.768 257.837 169.5 254.103 171.394C256.474 175.134 255.717 179.867 253.554 183.518C249.65 190.109 241.27 193.376 234.03 194.66Z" fill="#D46DA4"/>
<path d="M225.197 180.825C226.201 179.476 227.202 178.164 228.286 176.873C233.639 170.511 240.437 164.221 246.507 158.706C247.91 157.433 248.373 157.806 249.761 157.064C251.247 156.271 253.231 153.775 254.856 154.109C254.895 154.116 255.433 154.589 255.448 154.629C255.649 155.235 254.12 156.852 253.615 157.332C252.653 158.243 251.243 159.032 250.257 159.947C242.751 166.864 236.232 174.797 229.38 182.259C228.827 182.862 228.207 183.4 227.586 183.927C226.94 183.084 225.814 181.524 225.2 180.825H225.197Z" fill="#5A55AB"/>
<path d="M135.692 194.659C130.027 193.558 124.215 191.593 119.827 187.734C116.107 184.464 113.341 179.167 114.561 174.132C114.826 173.039 115.443 172.239 115.544 171.274C106.736 167.595 100.637 159.817 99.2415 150.339C97.3544 137.562 107.683 129.439 119.386 135.69C127.957 140.269 134.11 149.066 137.357 158.049C146.186 158.085 150.545 166.867 151.212 174.62C149.26 176.284 146.469 178.93 144.769 180.824C143.585 179.58 142.659 178.059 141.554 176.754C136.115 170.327 129.331 164.073 123.06 158.508C121.747 157.342 121.015 157.762 119.662 156.887C118.622 156.213 116.638 153.914 115.314 154.104C115.196 154.122 114.27 154.56 114.234 154.61C113.524 155.625 119.476 159.788 120.186 160.426C121.955 162.011 123.663 163.847 125.324 165.551C131.118 171.482 136.384 177.977 142.143 183.933C139.979 186.777 137.324 191.446 135.699 194.67L135.692 194.659Z" fill="#D46DA4"/>
<path d="M142.136 183.926C136.377 177.973 131.111 171.479 125.317 165.544C123.656 163.84 121.948 162.008 120.179 160.419C119.469 159.781 113.517 155.614 114.227 154.603C114.263 154.552 115.189 154.115 115.307 154.097C116.631 153.907 118.615 156.209 119.655 156.88C121.008 157.755 121.736 157.335 123.053 158.501C129.324 164.066 136.112 170.32 141.547 176.747C142.649 178.052 143.578 179.572 144.762 180.817C144.098 181.552 142.702 183.176 142.136 183.919V183.926Z" fill="#5A55AB"/>
<path d="M243.576 226.152C243.433 222.717 242.751 218.754 241.905 215.415C243.695 215.767 245.643 214.741 247.343 214.293C253.812 212.586 260.27 210.94 266.875 209.717C267.789 209.549 268.439 209.212 268.536 209.208C269.461 209.169 270.502 209.283 271.56 209.151C273.185 208.95 273.982 208.706 275.399 208.19C275.607 208.114 276.913 208.147 276.723 207.472C276.364 206.181 274.488 206.515 273.296 206.594C266.688 207.024 259.373 208.545 252.739 209.427C248.732 209.957 244.628 209.914 240.713 211.127C240.1 209.151 239.067 206.178 238.328 204.209C243.86 196.689 255.53 189.653 263.997 197.044L264.342 197.051C266.806 193.272 272.931 191.066 277.343 190.84C292.257 190.08 301.732 204.618 288.433 214.569C282.319 219.141 273.781 221.275 266.397 218.801C263.972 223.226 260.819 226.292 255.803 227.522C251.326 228.619 247.806 227.619 243.58 226.163L243.576 226.152Z" fill="#D46DA4"/>
<path d="M240.71 211.123C244.624 209.911 248.728 209.958 252.735 209.423C259.369 208.541 266.688 207.024 273.293 206.59C274.487 206.511 276.36 206.181 276.719 207.469C276.909 208.147 275.603 208.111 275.395 208.186C273.978 208.703 273.181 208.95 271.556 209.147C270.498 209.276 269.457 209.165 268.532 209.205C268.435 209.208 267.786 209.545 266.871 209.714C260.27 210.937 253.808 212.583 247.34 214.29C245.639 214.738 243.687 215.767 241.901 215.412C241.578 214.132 241.097 212.371 240.706 211.116L240.71 211.123Z" fill="#5A55AB"/>
<path d="M131.635 204.205C130.845 206.486 129.966 208.831 129.249 211.123C126.669 210.603 124.079 210.065 121.464 209.721C120.118 209.545 118.504 209.62 117.198 209.452C110.615 208.605 102.908 206.945 96.4291 206.594C95.7726 206.558 91.9194 206.493 93.4442 207.906C94.1474 208.559 98.7862 209.222 100.049 209.437C106.973 210.614 113.818 212.005 120.714 213.812C123.049 214.426 125.374 215.523 127.817 215.419C127.1 218.266 126.314 223.229 126.146 226.156C122.364 227.565 118.977 228.49 114.916 227.719C109.951 226.776 105.567 223.495 103.687 218.779C96.3251 221.142 88.1094 219.346 81.9099 214.903C71.7317 207.608 73.3175 194.975 85.6123 191.722C92.9204 189.789 100.612 191.342 105.771 197.03C114.471 189.692 125.869 196.646 131.635 204.205Z" fill="#D46DA4"/>
<path d="M129.245 211.123C128.847 212.389 128.086 214.332 127.814 215.419C125.371 215.523 123.046 214.425 120.71 213.812C113.815 212.005 106.973 210.613 100.045 209.437C98.7825 209.222 94.1437 208.559 93.4405 207.906C91.9158 206.493 95.7689 206.558 96.4254 206.593C102.905 206.948 110.611 208.605 117.194 209.452C118.5 209.62 120.115 209.545 121.46 209.721C124.075 210.065 126.666 210.603 129.245 211.123Z" fill="#5A55AB"/>
<path d="M243.576 230.925C250.163 229.936 256.84 234.397 257.661 241.181C258.935 241.214 260.072 240.665 261.36 240.69C266.311 240.783 274.33 243.871 278.061 247.156C283.414 251.868 284.572 262.017 277.48 265.649C269.027 269.981 258.045 264.853 251.336 259.37C244.932 264.154 235.049 260.987 231.163 254.543V254.303C233.126 252.578 235.153 250.882 236.753 248.795C237.38 247.977 238.543 246.331 239.042 245.474C247.677 247.038 255.599 250.946 263.556 254.482L265.059 253.7C264.783 252.682 263.703 252.399 263.029 251.918C258.795 248.895 253.385 246.482 248.865 244.312C246.4 243.129 243.731 242.168 241.427 240.705C242.712 237.574 243.372 234.303 243.576 230.922V230.925Z" fill="#D46DA4"/>
<path d="M126.142 230.925C126.357 234.017 127.168 236.986 128.234 239.937C128.345 240.249 128.237 240.855 128.291 240.945C122.54 243.764 116.391 246.249 110.787 249.336C109.782 249.889 108.355 250.638 107.443 251.244C107.128 251.452 105.029 253.026 104.953 253.166C104.817 253.414 104.903 253.776 104.91 254.059C106.055 254.393 106.934 254.102 108.046 253.758C109.937 253.166 111.759 251.933 113.571 251.169C119.211 248.78 124.779 246.898 130.68 245.248C132.722 248.716 135.757 251.929 138.796 254.554C134.652 260.826 125.069 264.312 118.626 259.395C111.809 264.523 102.266 269.511 93.6236 266.184C88.1884 264.089 86.4986 259.087 87.8332 253.6C89.4082 247.109 96.6983 243.308 102.7 241.741C105.814 240.931 108.871 240.378 112.043 241.178C113.18 234.565 119.519 229.921 126.146 230.936L126.142 230.925Z" fill="#D46DA4"/>
<path d="M241.427 240.708C243.731 242.174 246.396 243.132 248.864 244.315C253.385 246.485 258.795 248.895 263.029 251.921C263.703 252.405 264.783 252.685 265.059 253.704L263.556 254.485C255.602 250.953 247.677 247.044 239.042 245.477C239.766 244.229 240.889 242.02 241.427 240.704V240.708Z" fill="#5A55AB"/>
<path d="M128.291 240.945C128.958 242.071 129.826 243.796 130.677 245.241C124.775 246.89 119.207 248.777 113.567 251.161C111.759 251.929 109.936 253.162 108.042 253.751C106.93 254.098 106.051 254.385 104.906 254.052C104.899 253.768 104.813 253.41 104.949 253.159C105.025 253.023 107.124 251.448 107.439 251.237C108.351 250.631 109.778 249.885 110.783 249.329C116.387 246.241 122.533 243.756 128.287 240.938L128.291 240.945Z" fill="#5A55AB"/>
<path d="M243.576 226.153C243.433 222.717 242.751 218.755 241.905 215.416C241.582 214.136 241.101 212.375 240.71 211.12C240.096 209.144 239.063 206.171 238.324 204.203C237.14 201.054 235.544 197.701 234.026 194.66C232.229 191.06 230.03 187.119 227.583 183.923C226.937 183.081 225.81 181.521 225.197 180.821C223.471 178.863 220.842 176.371 218.754 174.618C213.103 169.877 203.703 164.993 196.316 164.358C148.141 160.227 135.854 196.317 135.452 195.61C134.458 197.644 132.862 200.05 132.589 202.291C132.467 203.281 132.392 204.321 132.112 205.393C132.84 205.429 132.327 224.733 134.02 237.363C135.671 240.863 140.256 247.598 143.334 249.886C143.84 250.262 144.482 250.459 145.185 250.954C147.693 252.733 150.911 254.953 153.674 256.254C157.057 257.85 161.423 258.349 164.914 259.36C165.255 259.457 165.222 259.934 165.319 260.002C165.362 260.031 165.933 259.754 166.331 259.801C167.386 259.927 168.95 260.332 170.155 260.536C189.812 263.871 208.073 261.157 226.915 255.182C228.257 254.755 229.671 253.511 231.167 254.304C233.129 252.579 235.156 250.882 236.756 248.795C237.384 247.978 238.547 246.332 239.045 245.475C239.77 244.227 240.893 242.018 241.431 240.702C242.715 237.571 243.376 234.3 243.58 230.919C243.677 229.345 243.648 227.72 243.58 226.146L243.576 226.153Z" fill="#F3D5E6"/>
<path d="M132.112 205.396C131.53 207.605 130.587 209.639 130.232 211.984C129.066 219.626 130.734 230.388 134.024 237.362C135.674 240.862 140.259 247.597 143.334 249.885C143.84 250.262 144.482 250.459 145.185 250.954C147.693 252.732 150.911 254.952 153.673 256.254C157.057 257.85 161.423 258.348 164.914 259.359C165.254 259.456 165.222 259.933 165.319 260.001C165.362 260.03 165.932 259.754 166.331 259.8C167.385 259.926 168.95 260.331 170.155 260.536C189.812 263.871 208.073 261.156 226.915 255.182C228.257 254.755 229.671 253.51 231.167 254.303V254.543C222.402 262.128 211.198 265.613 199.9 267.428C200.675 268.457 201.769 269.253 202.763 270.049C202.404 270.189 202.017 270.412 201.637 270.469C191.943 271.918 183.501 273.047 173.596 271.409C171.963 271.14 170.141 270.695 168.634 270.046L170.302 267.424C168.831 267.403 162.714 265.972 160.278 265.276C151.844 262.967 145.486 260.313 138.795 254.54C135.757 251.918 132.722 248.702 130.68 245.234C129.83 243.789 128.962 242.064 128.294 240.938C128.241 240.848 128.352 240.242 128.237 239.93C127.172 236.975 126.361 234.009 126.145 230.918C126.045 229.498 126.063 227.576 126.145 226.145C126.314 223.219 127.1 218.259 127.817 215.409C128.09 214.326 128.851 212.382 129.249 211.112C129.966 208.821 130.845 206.476 131.635 204.195C131.857 203.549 132.09 202.775 132.589 202.287C132.467 203.277 132.392 204.317 132.112 205.389V205.396Z" fill="#B895CD"/>
<path d="M141.935 208.796C141.436 208.549 140.97 208.229 140.514 207.903C139.736 207.344 138.982 206.756 138.125 206.422C136.442 205.769 133.909 205.483 132.108 205.396C131.531 207.606 130.584 209.639 130.228 211.984C129.063 219.626 130.731 230.388 134.021 237.363C136.109 237.341 137.619 235.72 139.535 235.43C139.452 235.354 139.377 235.272 139.298 235.193C139.298 235.193 139.302 235.193 139.305 235.19L139.535 235.433C140.367 234.687 141.078 233.913 141.687 233.12C148.752 224.973 141.935 208.796 141.935 208.796Z" fill="#E595C1"/>
<path d="M217.325 199.308C216.909 195.456 208.216 191.705 204.843 192.333C203.735 192.537 201.65 193.771 201.571 195.033C201.561 195.202 201.977 197.633 202.07 197.859C202.867 199.849 205.618 201.51 207.67 201.807C208.761 201.965 210.107 201.757 211.247 201.811C213.508 201.922 217.734 203.062 217.328 199.311L217.325 199.308ZM215.305 200.401C214.964 200.896 211.99 200.036 211.204 199.939C209.78 199.767 208.255 199.871 206.849 199.519C205.547 199.197 202.418 196.65 203.459 195.241C203.695 194.922 205.339 193.986 205.769 193.947C206.508 193.878 207.911 194.316 208.729 194.42C208.958 194.449 209.21 194.398 209.446 194.42C211.039 195.155 213.375 195.976 214.462 197.4C214.907 197.981 215.746 199.76 215.309 200.398L215.305 200.401Z" fill="#282856"/>
<path d="M208.729 194.424C208.959 194.452 209.21 194.402 209.447 194.424C211.04 195.159 213.375 195.98 214.462 197.404C214.907 197.985 215.747 199.763 215.309 200.402C214.968 200.896 211.994 200.036 211.208 199.939C209.784 199.767 208.259 199.871 206.853 199.519C205.551 199.197 202.422 196.651 203.463 195.241C203.699 194.922 205.343 193.986 205.773 193.947C206.512 193.878 207.915 194.316 208.733 194.42L208.729 194.424Z" fill="#D46DA4"/>
<path d="M196.316 164.361C196.194 164.759 195.401 164.447 195.355 164.727C195.168 165.842 196.234 167.183 196.463 168.105C198.497 176.306 196.887 185.44 192.456 192.591C185.905 203.155 173.423 209.589 160.942 207.473C159.736 207.268 158.262 206.462 157.171 207.068C156.084 206.666 153.537 205.784 153.354 205.755C148.694 204.966 145.095 203.639 141.206 201.197C138.914 199.759 136.811 197.995 135.452 195.614C135.577 195.356 135.563 194.911 135.692 194.66C137.317 191.436 139.972 186.767 142.135 183.923C142.699 183.181 144.098 181.556 144.762 180.821C146.466 178.928 149.253 176.281 151.205 174.617C162.678 164.842 181.754 161.32 196.316 164.358V164.361Z" fill="#E595C1"/>
<path d="M163.317 192.336C164.975 192.142 167.705 192.959 168.239 194.706C168.53 195.66 168.035 195.592 167.924 196.223C167.568 198.245 167.766 198.572 166.004 200.031C163.392 202.197 161.534 201.645 158.474 201.806C156.54 201.91 152.766 203.051 152.403 200.003C152.264 198.823 152.913 198.023 153.598 197.17C155.618 194.656 160.142 192.705 163.317 192.332V192.336ZM163.952 199.056C165.082 198.417 167.03 196.861 166.356 195.38C165.233 192.909 160.429 194.362 158.556 195.208C156.418 196.173 154.021 197.987 154.549 200.626C154.732 200.806 158.126 200.017 158.754 199.938C160.623 199.705 162.348 199.959 163.952 199.056Z" fill="#282856"/>
<path d="M163.952 199.056C162.349 199.96 160.626 199.705 158.754 199.939C158.126 200.017 154.728 200.806 154.549 200.627C154.022 197.988 156.418 196.173 158.556 195.209C160.429 194.362 165.233 192.91 166.356 195.381C167.03 196.862 165.079 198.418 163.952 199.056Z" fill="#D46DA4"/>
<circle cx="218.517" cy="223.937" r="17.0018" fill="white"/>
<path d="M235.716 223.829C235.716 233.249 228.078 240.884 218.653 240.884C209.228 240.884 201.59 233.249 201.59 223.829C201.59 214.408 209.228 206.773 218.653 206.773C228.078 206.773 235.716 214.408 235.716 223.829ZM234.306 223.822C234.306 215.176 227.296 208.168 218.646 208.168C209.996 208.168 202.986 215.176 202.986 223.822C202.986 232.468 209.996 239.475 218.646 239.475C227.296 239.475 234.306 232.468 234.306 223.822Z" fill="#282856"/>
<path d="M231.275 224.037C231.275 231.256 225.42 237.108 218.198 237.108C210.976 237.108 205.121 231.256 205.121 224.037C205.121 216.818 210.976 210.966 218.198 210.966C225.42 210.966 231.275 216.818 231.275 224.037Z" fill="#282856"/>
<path d="M224.171 231.327C224.067 231.395 224.16 231.664 223.726 231.715C220.497 232.098 217.477 230.226 217.416 226.78C217.333 222.233 222.442 220.519 225.753 222.979C229 225.392 226.991 229.538 224.171 231.324V231.327Z" fill="white"/>
<path d="M211.022 216.509C211.966 215.612 214.215 214.791 215.474 215.361C218.122 216.552 215.887 223.548 211.808 221.411C209.845 220.382 209.357 218.09 211.022 216.509Z" fill="white"/>
<path d="M168.386 223.836C168.386 214.422 160.752 206.791 151.334 206.791C141.917 206.791 134.282 214.422 134.282 223.836C134.282 233.249 141.917 240.88 151.334 240.88C160.752 240.88 168.386 233.249 168.386 223.836ZM166.984 223.821C166.984 215.179 159.973 208.172 151.327 208.172C142.681 208.172 135.671 215.179 135.671 223.821C135.671 232.464 142.681 239.471 151.327 239.471C159.973 239.471 166.984 232.464 166.984 223.821Z" fill="#282856"/>
<path d="M152.231 206.812C151.435 206.769 150.635 206.784 149.838 206.855C150.323 206.49 151.7 206.479 152.231 206.812Z" fill="#E595C1"/>
<path d="M166.984 223.821C166.984 232.464 159.974 239.471 151.327 239.471C142.681 239.471 135.671 232.464 135.671 223.821C135.671 215.179 142.681 208.172 151.327 208.172C159.974 208.172 166.984 215.179 166.984 223.821ZM164.838 224.033C164.838 216.829 158.994 210.987 151.787 210.987C144.579 210.987 138.735 216.829 138.735 224.033C138.735 231.237 144.579 237.079 151.787 237.079C158.994 237.079 164.838 231.237 164.838 224.033Z" fill="white"/>
<path d="M151.37 223.491C151.826 223.972 152.249 224.148 152.411 224.954C153.189 228.802 150.509 232.482 146.384 231.693C144.701 231.37 142.451 227.719 142.437 226.095C142.405 222.125 148.594 220.562 151.367 223.488L151.37 223.491Z" fill="white"/>
<path d="M157.179 215.305C157.243 215.334 157.272 215.628 157.415 215.706C158.958 216.549 160.235 217.327 159.852 219.404C159.579 220.895 156.608 222.502 155.399 221.609C155.288 221.527 153.648 219.605 153.598 219.475C153.175 218.432 153.293 215.947 154.431 215.416C154.929 215.183 156.716 215.108 157.179 215.308V215.305Z" fill="white"/>
<path d="M190.239 240.199L189.999 240.439C189.138 241.371 188.704 243.505 188.295 244.703L181.779 244.746C181.374 243.448 180.638 240.6 179.612 239.725C179.203 239.374 178.443 239.356 178.303 239.854C178.202 240.209 179.62 242.415 179.846 243.071C180.592 245.248 180.793 248.235 180.344 250.476C180.201 251.183 179.2 252.226 180.208 252.739C180.656 252.969 180.811 252.642 181.033 252.355C182.188 250.86 182.088 247.959 181.88 246.166H188.086V249.863C188.086 250.394 188.962 252.789 189.676 252.814C190.921 252.854 189.633 250.319 189.547 249.598C189.138 246.234 190.253 244.373 190.713 241.393C190.731 241.282 191.527 240.833 191.62 240.521C192.051 239.051 190.293 240.181 190.235 240.202L190.239 240.199Z" fill="#282856"/>
<rect width="141.954" height="46.3843" transform="translate(114.023 279.153)" fill="#D9DE9E"/>
<path d="M123.321 305.031L124.972 298.057H125.894L126.105 299.219L124.346 306.346H123.355L123.321 305.031ZM122.473 298.057L123.839 305.031L123.725 306.346H122.621L120.782 298.057H122.473ZM127.556 305.002L128.906 298.057H130.596L128.763 306.346H127.659L127.556 305.002ZM126.412 298.057L128.074 305.059L128.029 306.346H127.038L125.268 299.213L125.496 298.057H126.412ZM134.074 306.46C133.596 306.46 133.167 306.384 132.788 306.232C132.408 306.076 132.086 305.862 131.82 305.589C131.558 305.315 131.357 304.998 131.217 304.638C131.076 304.274 131.006 303.887 131.006 303.477V303.249C131.006 302.782 131.073 302.355 131.205 301.968C131.338 301.581 131.528 301.245 131.775 300.961C132.025 300.676 132.329 300.458 132.685 300.306C133.042 300.15 133.444 300.073 133.892 300.073C134.329 300.073 134.716 300.145 135.054 300.289C135.391 300.433 135.674 300.638 135.902 300.904C136.133 301.169 136.308 301.488 136.425 301.86C136.543 302.228 136.602 302.638 136.602 303.09V303.773H131.706V302.68H134.991V302.554C134.991 302.327 134.949 302.124 134.866 301.945C134.786 301.763 134.665 301.619 134.501 301.513C134.338 301.406 134.129 301.353 133.875 301.353C133.659 301.353 133.473 301.401 133.317 301.496C133.162 301.591 133.035 301.723 132.936 301.894C132.841 302.065 132.769 302.266 132.72 302.498C132.674 302.725 132.651 302.976 132.651 303.249V303.477C132.651 303.723 132.685 303.951 132.754 304.16C132.826 304.368 132.926 304.549 133.055 304.701C133.188 304.852 133.348 304.97 133.534 305.053C133.723 305.137 133.938 305.179 134.177 305.179C134.473 305.179 134.748 305.122 135.002 305.008C135.26 304.89 135.482 304.714 135.668 304.479L136.465 305.344C136.336 305.53 136.16 305.708 135.936 305.879C135.716 306.05 135.45 306.19 135.139 306.3C134.828 306.406 134.473 306.46 134.074 306.46ZM139.266 297.602V306.346H137.621V297.602H139.266ZM143.165 305.179C143.367 305.179 143.545 305.141 143.7 305.065C143.856 304.985 143.978 304.875 144.065 304.735C144.156 304.59 144.203 304.422 144.207 304.228H145.75C145.746 304.661 145.63 305.046 145.403 305.384C145.175 305.718 144.869 305.981 144.486 306.175C144.103 306.365 143.674 306.46 143.2 306.46C142.721 306.46 142.304 306.38 141.947 306.22C141.594 306.061 141.3 305.841 141.065 305.56C140.83 305.276 140.653 304.945 140.535 304.57C140.418 304.19 140.359 303.784 140.359 303.351V303.186C140.359 302.75 140.418 302.344 140.535 301.968C140.653 301.589 140.83 301.258 141.065 300.978C141.3 300.693 141.594 300.471 141.947 300.312C142.3 300.152 142.714 300.073 143.188 300.073C143.693 300.073 144.135 300.169 144.515 300.363C144.898 300.556 145.198 300.833 145.414 301.194C145.634 301.551 145.746 301.974 145.75 302.463H144.207C144.203 302.258 144.16 302.072 144.076 301.906C143.997 301.739 143.879 301.606 143.723 301.507C143.571 301.405 143.384 301.353 143.16 301.353C142.921 301.353 142.725 301.405 142.573 301.507C142.422 301.606 142.304 301.742 142.22 301.917C142.137 302.088 142.078 302.283 142.044 302.503C142.014 302.72 141.998 302.947 141.998 303.186V303.351C141.998 303.591 142.014 303.82 142.044 304.04C142.074 304.26 142.131 304.456 142.215 304.627C142.302 304.797 142.422 304.932 142.573 305.031C142.725 305.129 142.923 305.179 143.165 305.179ZM146.439 303.329V303.209C146.439 302.757 146.503 302.342 146.632 301.962C146.761 301.579 146.949 301.247 147.196 300.966C147.442 300.685 147.746 300.467 148.107 300.312C148.467 300.152 148.881 300.073 149.348 300.073C149.814 300.073 150.23 300.152 150.594 300.312C150.959 300.467 151.264 300.685 151.511 300.966C151.761 301.247 151.951 301.579 152.08 301.962C152.209 302.342 152.273 302.757 152.273 303.209V303.329C152.273 303.776 152.209 304.192 152.08 304.575C151.951 304.955 151.761 305.287 151.511 305.572C151.264 305.852 150.96 306.071 150.6 306.226C150.239 306.382 149.826 306.46 149.359 306.46C148.892 306.46 148.477 306.382 148.112 306.226C147.752 306.071 147.446 305.852 147.196 305.572C146.949 305.287 146.761 304.955 146.632 304.575C146.503 304.192 146.439 303.776 146.439 303.329ZM148.078 303.209V303.329C148.078 303.587 148.101 303.828 148.146 304.052C148.192 304.276 148.264 304.473 148.363 304.644C148.465 304.811 148.598 304.942 148.761 305.036C148.924 305.131 149.124 305.179 149.359 305.179C149.587 305.179 149.782 305.131 149.945 305.036C150.108 304.942 150.239 304.811 150.338 304.644C150.437 304.473 150.509 304.276 150.554 304.052C150.604 303.828 150.628 303.587 150.628 303.329V303.209C150.628 302.959 150.604 302.723 150.554 302.503C150.509 302.279 150.435 302.082 150.332 301.911C150.234 301.737 150.103 301.6 149.94 301.501C149.776 301.403 149.579 301.353 149.348 301.353C149.116 301.353 148.919 301.403 148.755 301.501C148.596 301.6 148.465 301.737 148.363 301.911C148.264 302.082 148.192 302.279 148.146 302.503C148.101 302.723 148.078 302.959 148.078 303.209ZM154.921 301.461V306.346H153.275V300.186H154.818L154.921 301.461ZM154.693 303.05H154.237C154.237 302.621 154.289 302.226 154.391 301.866C154.497 301.501 154.651 301.186 154.852 300.921C155.057 300.651 155.31 300.443 155.609 300.295C155.909 300.147 156.256 300.073 156.651 300.073C156.924 300.073 157.175 300.114 157.402 300.198C157.63 300.277 157.826 300.405 157.989 300.579C158.156 300.75 158.285 300.974 158.376 301.251C158.467 301.524 158.513 301.852 158.513 302.236V306.346H156.873V302.418C156.873 302.137 156.835 301.921 156.759 301.769C156.683 301.617 156.575 301.511 156.435 301.45C156.298 301.389 156.133 301.359 155.939 301.359C155.727 301.359 155.541 301.403 155.382 301.49C155.226 301.577 155.097 301.699 154.995 301.854C154.892 302.006 154.816 302.184 154.767 302.389C154.717 302.594 154.693 302.814 154.693 303.05ZM158.359 302.862L157.772 302.936C157.772 302.534 157.822 302.16 157.921 301.814C158.023 301.469 158.173 301.165 158.37 300.904C158.571 300.642 158.82 300.439 159.116 300.295C159.412 300.147 159.754 300.073 160.141 300.073C160.437 300.073 160.706 300.116 160.949 300.203C161.192 300.287 161.399 300.422 161.569 300.608C161.744 300.79 161.877 301.029 161.968 301.325C162.063 301.621 162.11 301.983 162.11 302.412V306.346H160.465V302.412C160.465 302.128 160.427 301.911 160.351 301.763C160.279 301.611 160.173 301.507 160.032 301.45C159.896 301.389 159.733 301.359 159.543 301.359C159.346 301.359 159.173 301.399 159.025 301.479C158.877 301.554 158.754 301.661 158.655 301.797C158.556 301.934 158.482 302.093 158.433 302.276C158.384 302.454 158.359 302.649 158.359 302.862ZM166.215 306.46C165.736 306.46 165.308 306.384 164.928 306.232C164.549 306.076 164.226 305.862 163.96 305.589C163.698 305.315 163.497 304.998 163.357 304.638C163.216 304.274 163.146 303.887 163.146 303.477V303.249C163.146 302.782 163.213 302.355 163.346 301.968C163.478 301.581 163.668 301.245 163.915 300.961C164.165 300.676 164.469 300.458 164.826 300.306C165.182 300.15 165.585 300.073 166.032 300.073C166.469 300.073 166.856 300.145 167.194 300.289C167.531 300.433 167.814 300.638 168.042 300.904C168.273 301.169 168.448 301.488 168.566 301.86C168.683 302.228 168.742 302.638 168.742 303.09V303.773H163.846V302.68H167.131V302.554C167.131 302.327 167.089 302.124 167.006 301.945C166.926 301.763 166.805 301.619 166.642 301.513C166.478 301.406 166.27 301.353 166.015 301.353C165.799 301.353 165.613 301.401 165.457 301.496C165.302 301.591 165.175 301.723 165.076 301.894C164.981 302.065 164.909 302.266 164.86 302.498C164.814 302.725 164.791 302.976 164.791 303.249V303.477C164.791 303.723 164.826 303.951 164.894 304.16C164.966 304.368 165.067 304.549 165.196 304.701C165.328 304.852 165.488 304.97 165.674 305.053C165.864 305.137 166.078 305.179 166.317 305.179C166.613 305.179 166.888 305.122 167.142 305.008C167.401 304.89 167.623 304.714 167.808 304.479L168.605 305.344C168.476 305.53 168.3 305.708 168.076 305.879C167.856 306.05 167.59 306.19 167.279 306.3C166.968 306.406 166.613 306.46 166.215 306.46ZM175.596 300.186V301.348H172.01V300.186H175.596ZM172.898 298.666H174.537V304.49C174.537 304.668 174.56 304.805 174.605 304.9C174.655 304.995 174.727 305.061 174.822 305.099C174.917 305.133 175.036 305.15 175.18 305.15C175.283 305.15 175.374 305.146 175.454 305.139C175.537 305.127 175.607 305.116 175.664 305.105L175.67 306.312C175.529 306.357 175.378 306.393 175.214 306.42C175.051 306.446 174.871 306.46 174.674 306.46C174.313 306.46 173.998 306.401 173.729 306.283C173.463 306.162 173.258 305.968 173.114 305.702C172.97 305.437 172.898 305.088 172.898 304.655V298.666ZM176.12 303.329V303.209C176.12 302.757 176.184 302.342 176.313 301.962C176.442 301.579 176.63 301.247 176.877 300.966C177.123 300.685 177.427 300.467 177.788 300.312C178.148 300.152 178.562 300.073 179.029 300.073C179.495 300.073 179.911 300.152 180.275 300.312C180.639 300.467 180.945 300.685 181.192 300.966C181.442 301.247 181.632 301.579 181.761 301.962C181.89 302.342 181.954 302.757 181.954 303.209V303.329C181.954 303.776 181.89 304.192 181.761 304.575C181.632 304.955 181.442 305.287 181.192 305.572C180.945 305.852 180.641 306.071 180.281 306.226C179.92 306.382 179.507 306.46 179.04 306.46C178.573 306.46 178.158 306.382 177.793 306.226C177.433 306.071 177.127 305.852 176.877 305.572C176.63 305.287 176.442 304.955 176.313 304.575C176.184 304.192 176.12 303.776 176.12 303.329ZM177.759 303.209V303.329C177.759 303.587 177.782 303.828 177.827 304.052C177.873 304.276 177.945 304.473 178.044 304.644C178.146 304.811 178.279 304.942 178.442 305.036C178.605 305.131 178.805 305.179 179.04 305.179C179.268 305.179 179.463 305.131 179.626 305.036C179.789 304.942 179.92 304.811 180.019 304.644C180.118 304.473 180.19 304.276 180.235 304.052C180.285 303.828 180.309 303.587 180.309 303.329V303.209C180.309 302.959 180.285 302.723 180.235 302.503C180.19 302.279 180.116 302.082 180.013 301.911C179.915 301.737 179.784 301.6 179.621 301.501C179.457 301.403 179.26 301.353 179.029 301.353C178.797 301.353 178.6 301.403 178.436 301.501C178.277 301.6 178.146 301.737 178.044 301.911C177.945 302.082 177.873 302.279 177.827 302.503C177.782 302.723 177.759 302.959 177.759 303.209ZM190.545 298.057H192.247V303.534C192.247 304.171 192.11 304.708 191.837 305.145C191.567 305.581 191.193 305.909 190.715 306.129C190.241 306.349 189.694 306.46 189.076 306.46C188.457 306.46 187.907 306.349 187.425 306.129C186.947 305.909 186.571 305.581 186.298 305.145C186.028 304.708 185.894 304.171 185.894 303.534V298.057H187.601V303.534C187.601 303.905 187.66 304.209 187.778 304.444C187.896 304.68 188.064 304.852 188.285 304.962C188.509 305.072 188.772 305.127 189.076 305.127C189.387 305.127 189.651 305.072 189.867 304.962C190.087 304.852 190.254 304.68 190.368 304.444C190.486 304.209 190.545 303.905 190.545 303.534V298.057ZM193.288 303.329V303.209C193.288 302.757 193.353 302.342 193.482 301.962C193.611 301.579 193.799 301.247 194.045 300.966C194.292 300.685 194.596 300.467 194.956 300.312C195.317 300.152 195.73 300.073 196.197 300.073C196.664 300.073 197.08 300.152 197.444 300.312C197.808 300.467 198.114 300.685 198.36 300.966C198.611 301.247 198.801 301.579 198.93 301.962C199.059 302.342 199.123 302.757 199.123 303.209V303.329C199.123 303.776 199.059 304.192 198.93 304.575C198.801 304.955 198.611 305.287 198.36 305.572C198.114 305.852 197.81 306.071 197.45 306.226C197.089 306.382 196.675 306.46 196.209 306.46C195.742 306.46 195.326 306.382 194.962 306.226C194.601 306.071 194.296 305.852 194.045 305.572C193.799 305.287 193.611 304.955 193.482 304.575C193.353 304.192 193.288 303.776 193.288 303.329ZM194.928 303.209V303.329C194.928 303.587 194.951 303.828 194.996 304.052C195.042 304.276 195.114 304.473 195.212 304.644C195.315 304.811 195.448 304.942 195.611 305.036C195.774 305.131 195.973 305.179 196.209 305.179C196.436 305.179 196.632 305.131 196.795 305.036C196.958 304.942 197.089 304.811 197.188 304.644C197.286 304.473 197.359 304.276 197.404 304.052C197.453 303.828 197.478 303.587 197.478 303.329V303.209C197.478 302.959 197.453 302.723 197.404 302.503C197.359 302.279 197.285 302.082 197.182 301.911C197.083 301.737 196.952 301.6 196.789 301.501C196.626 301.403 196.429 301.353 196.197 301.353C195.966 301.353 195.768 301.403 195.605 301.501C195.446 301.6 195.315 301.737 195.212 301.911C195.114 302.082 195.042 302.279 194.996 302.503C194.951 302.723 194.928 302.959 194.928 303.209ZM202.22 306.346H200.569V299.64C200.569 299.173 200.66 298.78 200.842 298.462C201.028 298.139 201.288 297.896 201.622 297.733C201.96 297.566 202.36 297.482 202.823 297.482C202.975 297.482 203.121 297.494 203.262 297.517C203.402 297.536 203.539 297.56 203.672 297.591L203.655 298.826C203.582 298.807 203.507 298.794 203.427 298.786C203.347 298.778 203.254 298.775 203.148 298.775C202.951 298.775 202.782 298.809 202.641 298.877C202.505 298.942 202.4 299.038 202.328 299.167C202.256 299.296 202.22 299.454 202.22 299.64V306.346ZM203.45 300.186V301.348H199.653V300.186H203.45ZM208.117 298.057V306.346H206.415V298.057H208.117ZM210.668 298.057V299.395H203.905V298.057H210.668ZM219.764 301.433V302.765H215.438V301.433H219.764ZM215.945 298.057V306.346H214.237V298.057H215.945ZM220.983 298.057V306.346H219.281V298.057H220.983ZM225.69 304.957V302.213C225.69 302.016 225.658 301.847 225.594 301.706C225.529 301.562 225.429 301.45 225.292 301.37C225.159 301.291 224.986 301.251 224.774 301.251C224.592 301.251 224.434 301.283 224.301 301.348C224.169 301.408 224.066 301.498 223.994 301.615C223.922 301.729 223.886 301.864 223.886 302.019H222.246C222.246 301.758 222.307 301.509 222.429 301.274C222.55 301.038 222.726 300.832 222.958 300.653C223.189 300.471 223.465 300.329 223.783 300.226C224.106 300.124 224.466 300.073 224.865 300.073C225.343 300.073 225.768 300.152 226.14 300.312C226.512 300.471 226.804 300.71 227.017 301.029C227.233 301.348 227.341 301.746 227.341 302.224V304.86C227.341 305.198 227.362 305.475 227.404 305.691C227.446 305.904 227.506 306.09 227.586 306.249V306.346H225.929C225.85 306.179 225.789 305.97 225.747 305.72C225.709 305.465 225.69 305.211 225.69 304.957ZM225.907 302.594L225.918 303.522H225.002C224.785 303.522 224.597 303.547 224.438 303.596C224.279 303.646 224.148 303.716 224.045 303.807C223.943 303.894 223.867 303.997 223.818 304.114C223.772 304.232 223.749 304.361 223.749 304.501C223.749 304.642 223.781 304.769 223.846 304.883C223.911 304.993 224.004 305.08 224.125 305.145C224.246 305.205 224.389 305.236 224.552 305.236C224.799 305.236 225.013 305.186 225.195 305.088C225.377 304.989 225.518 304.868 225.616 304.723C225.719 304.579 225.772 304.442 225.776 304.313L226.208 305.008C226.148 305.164 226.064 305.325 225.958 305.492C225.855 305.659 225.725 305.816 225.565 305.964C225.406 306.109 225.214 306.228 224.99 306.323C224.766 306.414 224.501 306.46 224.193 306.46C223.802 306.46 223.448 306.382 223.129 306.226C222.814 306.067 222.563 305.849 222.377 305.572C222.195 305.291 222.104 304.972 222.104 304.615C222.104 304.293 222.165 304.006 222.286 303.756C222.408 303.505 222.586 303.294 222.821 303.124C223.06 302.949 223.358 302.818 223.715 302.731C224.072 302.64 224.485 302.594 224.956 302.594H225.907ZM231.15 305.179C231.351 305.179 231.529 305.141 231.685 305.065C231.84 304.985 231.962 304.875 232.049 304.735C232.14 304.59 232.187 304.422 232.191 304.228H233.734C233.73 304.661 233.614 305.046 233.387 305.384C233.159 305.718 232.854 305.981 232.47 306.175C232.087 306.365 231.658 306.46 231.184 306.46C230.706 306.46 230.288 306.38 229.931 306.22C229.578 306.061 229.284 305.841 229.049 305.56C228.814 305.276 228.637 304.945 228.52 304.57C228.402 304.19 228.343 303.784 228.343 303.351V303.186C228.343 302.75 228.402 302.344 228.52 301.968C228.637 301.589 228.814 301.258 229.049 300.978C229.284 300.693 229.578 300.471 229.931 300.312C230.284 300.152 230.698 300.073 231.172 300.073C231.677 300.073 232.119 300.169 232.499 300.363C232.882 300.556 233.182 300.833 233.398 301.194C233.618 301.551 233.73 301.974 233.734 302.463H232.191C232.187 302.258 232.144 302.072 232.06 301.906C231.981 301.739 231.863 301.606 231.707 301.507C231.556 301.405 231.368 301.353 231.144 301.353C230.905 301.353 230.709 301.405 230.558 301.507C230.406 301.606 230.288 301.742 230.205 301.917C230.121 302.088 230.062 302.283 230.028 302.503C229.998 302.72 229.983 302.947 229.983 303.186V303.351C229.983 303.591 229.998 303.82 230.028 304.04C230.058 304.26 230.115 304.456 230.199 304.627C230.286 304.797 230.406 304.932 230.558 305.031C230.709 305.129 230.907 305.179 231.15 305.179ZM236.324 297.596V306.346H234.685V297.596H236.324ZM240.206 300.186L237.531 303.238L236.096 304.689L235.499 303.505L236.637 302.059L238.237 300.186H240.206ZM238.504 306.346L236.683 303.499L237.816 302.509L240.394 306.346H238.504ZM244.242 304.644C244.242 304.526 244.208 304.42 244.14 304.325C244.072 304.23 243.945 304.143 243.759 304.063C243.576 303.979 243.313 303.904 242.967 303.835C242.656 303.767 242.366 303.682 242.096 303.579C241.831 303.473 241.599 303.346 241.402 303.198C241.208 303.05 241.057 302.875 240.946 302.674C240.836 302.469 240.781 302.236 240.781 301.974C240.781 301.716 240.836 301.473 240.946 301.245C241.06 301.017 241.222 300.816 241.43 300.642C241.643 300.463 241.901 300.325 242.205 300.226C242.512 300.124 242.857 300.073 243.241 300.073C243.776 300.073 244.235 300.158 244.618 300.329C245.005 300.499 245.301 300.735 245.506 301.035C245.715 301.331 245.819 301.668 245.819 302.048H244.18C244.18 301.888 244.146 301.746 244.077 301.621C244.013 301.492 243.91 301.391 243.77 301.319C243.633 301.243 243.455 301.205 243.235 301.205C243.053 301.205 242.895 301.238 242.762 301.302C242.63 301.363 242.527 301.446 242.455 301.553C242.387 301.655 242.353 301.769 242.353 301.894C242.353 301.989 242.371 302.074 242.409 302.15C242.451 302.222 242.518 302.289 242.609 302.35C242.7 302.41 242.817 302.467 242.962 302.52C243.11 302.57 243.292 302.615 243.508 302.657C243.952 302.748 244.349 302.868 244.698 303.016C245.047 303.16 245.324 303.357 245.529 303.608C245.734 303.854 245.836 304.179 245.836 304.581C245.836 304.854 245.776 305.105 245.654 305.332C245.533 305.56 245.358 305.759 245.13 305.93C244.903 306.097 244.63 306.228 244.311 306.323C243.996 306.414 243.641 306.46 243.246 306.46C242.673 306.46 242.187 306.357 241.789 306.152C241.394 305.947 241.094 305.687 240.89 305.372C240.688 305.053 240.588 304.727 240.588 304.393H242.142C242.149 304.617 242.206 304.797 242.313 304.934C242.423 305.071 242.561 305.169 242.728 305.23C242.899 305.291 243.083 305.321 243.28 305.321C243.493 305.321 243.669 305.293 243.81 305.236C243.95 305.175 244.056 305.095 244.129 304.997C244.204 304.894 244.242 304.776 244.242 304.644ZM248.751 298.057L248.563 303.813H247.197L247.003 298.057H248.751ZM246.958 305.594C246.958 305.351 247.041 305.15 247.208 304.991C247.379 304.828 247.603 304.746 247.88 304.746C248.161 304.746 248.385 304.828 248.552 304.991C248.719 305.15 248.802 305.351 248.802 305.594C248.802 305.83 248.719 306.029 248.552 306.192C248.385 306.355 248.161 306.437 247.88 306.437C247.603 306.437 247.379 306.355 247.208 306.192C247.041 306.029 246.958 305.83 246.958 305.594Z" fill="#6C4D14"/>
</svg>
