<svg width="1415" height="1208" viewBox="0 0 1415 1208" fill="none" xmlns="http://www.w3.org/2000/svg">
<rect width="1415" height="1208" fill="white"/>
<path d="M332.294 1012.26L346.507 1032.14L370.85 1034.29L350.969 1048.51L348.818 1072.85L334.605 1052.97L310.262 1050.82L330.142 1036.61L332.294 1012.26Z" fill="#4C95C2"/>
<path d="M513.125 66.7138L520.541 191.516L620.109 267.125L495.307 274.541L419.698 374.109L412.282 249.307L312.714 173.698L437.516 166.282L513.125 66.7138Z" fill="#4C95C2"/>
<path d="M1146.78 909.984L1186.72 966.388L1255.54 972.779L1199.14 1012.72L1192.75 1081.54L1152.8 1025.14L1083.98 1018.75L1140.39 978.803L1146.78 909.984Z" fill="#4C95C2"/>
<path d="M288.277 522.507L265.257 573.566L289.033 624.278L237.974 601.258L187.262 625.034L210.282 573.975L186.506 523.263L237.566 546.283L288.277 522.507Z" fill="#4C95C2"/>
<path d="M741.03 433.872L741.436 498.649L790.874 540.507L726.097 540.912L684.24 590.351L683.834 525.574L634.396 483.716L699.173 483.31L741.03 433.872Z" fill="#4C95C2"/>
<path d="M558.784 432.897L558.172 464.65L581.878 485.785L550.125 485.172L528.99 508.879L529.603 477.125L505.896 455.991L537.65 456.603L558.784 432.897Z" fill="#4C95C2"/>
<path d="M954.985 1039.76L955.268 1084.85L989.679 1113.99L944.591 1114.27L915.456 1148.68L915.174 1103.59L880.763 1074.46L925.85 1074.18L954.985 1039.76Z" fill="#4C95C2"/>
<path d="M589.488 852.826C594.141 854.82 599.769 856.193 604.81 857.034C635.397 862.095 661.464 858.607 691.398 854.133C692.572 853.956 693.769 853.269 694.877 852.838C711.671 866.325 733.385 879.491 753.104 888.195C753.038 897.032 753.991 906.732 756.749 915.126C757.303 916.798 759.607 922.202 760.472 923.564C758.677 923.287 756.384 923.021 754.755 922.301C741.938 916.676 718.906 902.38 708.514 892.613C707.03 891.218 706.01 888.716 704.094 887.464C703.196 887.741 703.883 889.037 704.094 889.668C707.584 900.166 711.472 911.549 714.042 922.08C720.357 947.959 722.938 974.59 721.443 1001.31C720.578 1016.78 715.106 1036.11 716.967 1051.4C717.421 1055.14 722.772 1064.29 724.367 1069.05C725.176 1071.46 727.347 1077.09 727.092 1079.29C726.694 1082.74 722.639 1082.29 722.229 1082.77C721.575 1083.51 723.149 1087.79 721.121 1089.39C719.027 1091.04 714.618 1089.33 712.303 1090.15C710.541 1090.77 710.431 1097.52 703.939 1095.39C695.065 1092.48 688.85 1085.55 683.089 1079.01C682.713 1069.56 681.295 1060.11 680.863 1050.69C680.375 1040.08 679.877 1028.14 680.94 1017.62C681.538 1011.66 684.552 1010.55 689.725 1008.26C690.512 1007.19 684.153 1001.03 682.768 1000.98C682.026 1000.95 680.951 1001.55 679.832 1001.59C675.778 1001.73 677.406 1002.34 676.797 1002.43C675.888 1002.56 673.019 1000.83 670.172 1000.87C661.775 1000.93 652.081 1003.36 643.628 1003.89C641.335 1004.03 635.463 1002.97 633.436 1003.3C632.694 1003.43 632.273 1004.4 631.863 1004.6C631.276 1004.88 631.808 1003.36 631.01 1003.14C626.966 1002.02 614.47 1001.09 609.784 1000.88C606.228 1000.72 603.248 1002.72 600.567 1000.19C600.644 1003.35 597.31 999.816 594.429 1001.62C594.174 1001.78 590.873 1006.13 590.884 1006.43C591.095 1011.62 597.719 1009.5 598.329 1015.27C599.448 1025.85 598.528 1037.18 599.093 1047.66L596.113 1081.96C592.258 1085.9 580.504 1095.97 575.109 1096C570.168 1096.03 570.478 1090.83 569.459 1090.19C568.14 1089.37 563.066 1090.81 560.729 1089.7C557.849 1088.33 558.901 1083.34 558.436 1082.78C557.572 1081.73 553.772 1083.87 554.082 1077.94C554.503 1069.83 562.867 1058.93 563.698 1052.14C565.326 1038.78 561.97 1023.72 560.729 1010.49C563.033 1010.32 565.581 1009.43 567.542 1008.24C569.326 1007.17 575.873 999.207 577.247 997.147C582.83 988.798 588.192 977.957 585.378 967.802C584.747 965.543 580.249 960.815 578.266 959.442C573.657 956.23 566.778 956.153 561.482 957.438C561.903 953.905 561.272 949.908 562.446 946.253L570.699 908.083C566.379 916.521 563.089 925.734 558.469 934.017C558.125 934.637 557.339 934.759 556.851 935.534C556.109 936.719 555.4 939.598 554.658 940.307C553.916 941.027 552.021 941.071 551.888 941.259C551.7 941.514 552.941 944.526 551.058 947.405C549.717 949.465 546.715 952.709 545.363 954.935C539.614 964.414 533.908 973.25 527.871 982.441C526.497 984.523 523.107 985.786 523.14 989.85C520.304 992.064 517.025 995.962 513.325 992.839C510.633 990.558 513.291 984.678 512.749 982.973C512.195 981.201 509.381 981.954 508.716 979.596C507.054 973.704 510.998 965.41 513.646 960.095C532.169 922.789 562.291 883.799 589.466 852.815L589.488 852.826Z" fill="#F3D5E6"/>
<path d="M596.114 1081.95L599.094 1047.65C598.518 1037.16 599.448 1025.84 598.329 1015.26C597.72 1009.49 591.095 1011.61 590.885 1006.42C590.874 1006.12 594.175 1001.76 594.43 1001.61C597.299 999.805 600.634 1003.34 600.567 1000.18C603.248 1002.71 606.239 1000.71 609.784 1000.87C614.471 1001.08 626.967 1002.01 631.011 1003.13C631.819 1003.35 631.276 1004.88 631.864 1004.59C632.262 1004.4 632.694 1003.41 633.437 1003.29C635.464 1002.97 641.336 1004.02 643.629 1003.88C652.082 1003.35 661.786 1000.92 670.173 1000.86C673.02 1000.83 675.9 1002.55 676.797 1002.42C677.407 1002.33 675.778 1001.72 679.833 1001.58C680.952 1001.53 682.026 1000.93 682.769 1000.97C684.153 1001.02 690.512 1007.17 689.726 1008.25C684.552 1010.53 681.539 1011.65 680.941 1017.61C679.877 1028.12 680.376 1040.07 680.863 1050.68C681.295 1060.1 682.713 1069.55 683.09 1079C682.99 1078.89 681.882 1078.92 681.306 1078.23C666.871 1060.66 662.196 1034.15 661.72 1011.95C647.307 1013.86 633.381 1013.86 618.968 1011.95C619.356 1036.31 613.529 1064.12 596.125 1081.95H596.114Z" fill="#B895CD"/>
<path d="M753.104 888.195C766.963 894.319 780.279 896.522 794.204 901.262C797.55 902.402 800.907 903.377 801.073 907.729C801.15 909.91 799.522 911.77 799.688 912.734C800.164 915.524 804.263 916.731 803.056 923.032C802.192 927.55 794.027 926.83 793.65 927.229C793.495 927.395 793.805 929.765 792.908 931.647C787.38 931.858 782.306 931.714 776.944 930.296C775.205 929.831 774.208 928.646 773.045 928.303C769.61 927.284 762.62 926.886 760.482 923.542C759.618 922.191 757.313 916.776 756.759 915.104C754.001 906.71 753.037 897.009 753.115 888.173L753.104 888.195Z" fill="#E595C1"/>
<path d="M561.471 957.438C566.777 956.153 573.646 956.231 578.255 959.442C580.238 960.815 584.735 965.544 585.367 967.803C588.192 977.957 582.83 988.798 577.235 997.147C575.862 999.196 569.314 1007.16 567.531 1008.24C565.57 1009.43 563.022 1010.31 560.718 1010.49C560.208 1005.01 559.244 997.646 559.244 992.441V974.757C559.244 971.844 559.687 965.82 559.986 962.598C560.141 960.893 561.327 958.589 561.46 957.438H561.471Z" fill="#E595C1"/>
<path d="M714.043 922.08C711.473 911.538 707.584 900.166 704.094 889.668C703.884 889.037 703.197 887.741 704.094 887.464C706.022 888.716 707.03 891.218 708.515 892.614C718.906 902.38 741.938 916.665 754.756 922.302C756.384 923.021 758.689 923.287 760.472 923.564C762.599 926.908 769.601 927.307 773.035 928.325C774.198 928.669 775.206 929.854 776.935 930.319C782.296 931.736 787.381 931.88 792.898 931.67C790.483 936.73 779.139 935.645 774.076 935.379C753.371 934.316 733.917 927.03 714.043 922.091V922.08Z" fill="#B895CD"/>
<path d="M561.471 957.438C561.338 958.578 560.152 960.893 559.997 962.598C551.146 973.206 541.651 983.283 531.958 993.138C529.033 995.519 523.184 993.891 523.151 989.861C523.117 985.797 526.507 984.534 527.881 982.453C533.919 973.262 539.624 964.425 545.374 954.946C546.725 952.72 549.728 949.476 551.068 947.416C552.951 944.526 551.711 941.525 551.899 941.27C552.032 941.093 553.926 941.049 554.669 940.318C555.411 939.598 556.109 936.73 556.862 935.545C557.349 934.759 558.136 934.648 558.479 934.028C563.088 925.745 566.378 916.543 570.71 908.094L562.457 946.265C561.282 949.919 561.903 953.927 561.493 957.449L561.471 957.438Z" fill="#B895CD"/>
<path d="M792.4 621.092C786.85 609.974 780.059 597.804 772.503 587.938C774.42 586.31 776.337 584.649 778.043 582.789C799.213 559.745 819.332 535.239 842.508 513.89C845.565 511.077 849.919 508.63 852.877 505.817C854.439 504.333 859.158 499.35 858.538 497.468C858.505 497.357 856.832 495.895 856.71 495.862C851.691 494.832 845.565 502.528 840.979 504.987C836.691 507.279 835.262 506.116 830.931 510.058C812.186 527.089 791.193 546.512 774.664 566.156C771.318 570.132 768.216 574.185 765.125 578.359C759.797 572.313 751.676 564.617 745.229 559.202C746.137 535.638 761.026 507.412 787.88 508.275C796.743 482.275 813.781 457.127 837.423 442.499C851.991 433.474 865.905 428.026 882.578 435.545C919.701 452.266 906.651 504.067 884.904 528.274C876.119 538.052 865.916 543.4 854.384 549.247C861.706 560.797 859.369 575.414 852.689 586.687C840.635 607.04 814.756 617.128 792.4 621.092Z" fill="#D46DA4"/>
<path d="M765.125 578.37C768.227 574.207 771.318 570.154 774.663 566.167C791.192 546.523 812.186 527.1 830.93 510.069C835.262 506.138 836.691 507.29 840.978 504.997C845.565 502.55 851.691 494.843 856.71 495.873C856.832 495.895 858.493 497.357 858.538 497.479C859.158 499.35 854.439 504.344 852.877 505.828C849.908 508.641 845.554 511.077 842.507 513.901C819.331 535.261 799.202 559.756 778.042 582.8C776.336 584.66 774.42 586.321 772.503 587.949C770.509 585.347 767.03 580.53 765.136 578.37H765.125Z" fill="#5A55AB"/>
<path d="M488.742 621.092C471.249 617.692 453.302 611.624 439.753 599.709C428.265 589.61 419.723 573.254 423.49 557.707C424.31 554.33 426.215 551.861 426.526 548.882C399.328 537.52 380.495 513.502 376.186 484.235C370.358 444.78 402.253 419.699 438.39 439C464.857 453.141 483.856 480.304 493.882 508.043C521.146 508.154 534.606 535.272 536.667 559.213C530.64 564.351 522.021 572.524 516.77 578.37C513.114 574.528 510.256 569.833 506.844 565.802C490.049 545.958 469.1 526.646 449.735 509.46C445.68 505.861 443.42 507.157 439.244 504.455C436.031 502.373 429.904 495.275 425.817 495.862C425.451 495.917 422.593 497.268 422.482 497.423C420.288 500.557 438.667 513.413 440.861 515.385C446.323 520.279 451.596 525.949 456.725 531.209C474.617 549.524 490.88 569.578 508.66 587.971C501.98 596.752 493.782 611.17 488.764 621.125L488.742 621.092Z" fill="#D46DA4"/>
<path d="M508.639 587.949C490.858 569.567 474.595 549.513 456.704 531.186C451.575 525.927 446.301 520.268 440.84 515.362C438.646 513.391 420.267 500.524 422.461 497.401C422.572 497.246 425.43 495.895 425.795 495.84C429.883 495.253 436.01 502.362 439.222 504.433C443.399 507.135 445.648 505.839 449.713 509.438C469.078 526.624 490.039 545.936 506.822 565.78C510.223 569.811 513.093 574.506 516.749 578.348C514.699 580.618 510.39 585.635 508.639 587.927V587.949Z" fill="#5A55AB"/>
<path d="M821.88 718.339C821.436 707.73 819.331 695.494 816.717 685.185C822.245 686.27 828.261 683.103 833.512 681.719C853.486 676.448 873.427 671.365 893.822 667.589C896.647 667.069 898.652 666.028 898.952 666.017C901.81 665.895 905.023 666.249 908.291 665.84C913.309 665.219 915.769 664.466 920.144 662.872C920.787 662.639 924.82 662.739 924.232 660.657C923.125 656.671 917.331 657.701 913.653 657.944C893.246 659.273 870.657 663.968 850.174 666.692C837.799 668.331 825.125 668.198 813.039 671.941C811.145 665.84 807.954 656.66 805.672 650.58C822.755 627.359 858.793 605.633 884.937 628.456L886.001 628.478C893.612 616.806 912.523 609.996 926.149 609.298C972.202 606.951 1001.46 651.843 960.392 682.572C941.515 696.69 915.148 703.279 892.349 695.638C884.86 709.303 875.122 718.771 859.635 722.569C845.809 725.957 834.941 722.868 821.891 718.372L821.88 718.339Z" fill="#D46DA4"/>
<path d="M813.029 671.93C825.115 668.187 837.789 668.331 850.163 666.681C870.647 663.957 893.247 659.273 913.642 657.933C917.331 657.69 923.114 656.671 924.222 660.646C924.809 662.739 920.777 662.628 920.134 662.861C915.758 664.455 913.299 665.22 908.28 665.829C905.012 666.227 901.8 665.884 898.941 666.006C898.642 666.017 896.637 667.058 893.812 667.578C873.428 671.354 853.476 676.437 833.501 681.708C828.25 683.092 822.224 686.27 816.707 685.174C815.71 681.221 814.225 675.784 813.018 671.908L813.029 671.93Z" fill="#5A55AB"/>
<path d="M476.212 650.569C473.775 657.612 471.061 664.854 468.845 671.93C460.88 670.325 452.881 668.663 444.805 667.6C440.651 667.058 435.665 667.29 431.633 666.77C411.304 664.157 387.508 659.03 367.5 657.944C365.473 657.834 353.575 657.634 358.283 661.997C360.454 664.013 374.779 666.061 378.678 666.726C400.06 670.358 421.197 674.654 442.49 680.235C449.702 682.129 456.88 685.517 464.425 685.196C462.209 693.989 459.783 709.314 459.262 718.35C447.586 722.702 437.128 725.559 424.587 723.178C409.255 720.266 395.717 710.134 389.912 695.572C367.179 702.869 341.81 697.322 322.666 683.602C291.237 661.078 296.134 622.066 334.099 612.023C356.666 606.054 380.418 610.849 396.348 628.411C423.213 605.755 458.409 627.227 476.212 650.569Z" fill="#D46DA4"/>
<path d="M468.833 671.93C467.603 675.839 465.255 681.841 464.413 685.196C456.868 685.517 449.69 682.129 442.478 680.235C421.185 674.654 400.059 670.358 378.666 666.725C374.767 666.061 360.442 664.012 358.271 661.997C353.563 657.634 365.461 657.833 367.488 657.944C387.496 659.04 411.292 664.156 431.621 666.77C435.653 667.29 440.639 667.058 444.793 667.6C452.869 668.663 460.868 670.324 468.833 671.93Z" fill="#5A55AB"/>
<path d="M821.878 733.078C842.218 730.022 862.835 743.797 865.372 764.748C869.304 764.848 872.816 763.154 876.793 763.231C892.081 763.519 916.842 773.053 928.363 783.197C944.892 797.747 948.47 829.085 926.568 840.302C900.468 853.679 866.557 837.844 845.84 820.913C826.066 835.685 795.545 825.907 783.547 806.008V805.266C789.607 799.94 795.866 794.702 800.807 788.257C802.746 785.732 806.335 780.65 807.875 778.003C834.541 782.831 859.001 794.901 883.573 805.82L888.215 803.406C887.362 800.261 884.028 799.386 881.945 797.902C868.872 788.567 852.166 781.115 838.207 774.415C830.597 770.761 822.354 767.793 815.242 763.275C819.208 753.608 821.247 743.509 821.878 733.067V733.078Z" fill="#D46DA4"/>
<path d="M459.251 733.078C459.915 742.623 462.419 751.792 465.709 760.906C466.053 761.869 465.721 763.74 465.887 764.017C448.128 772.721 429.14 780.395 411.835 789.929C408.734 791.635 404.324 793.949 401.51 795.82C400.536 796.463 394.055 801.324 393.822 801.756C393.401 802.52 393.667 803.638 393.689 804.513C397.223 805.543 399.937 804.646 403.372 803.583C409.21 801.756 414.838 797.946 420.432 795.588C437.847 788.213 455.041 782.399 473.265 777.305C479.568 788.014 488.941 797.935 498.324 806.041C485.529 825.409 455.938 836.172 436.042 820.99C414.993 836.825 385.524 852.229 358.837 841.952C342.053 835.485 336.835 820.038 340.956 803.096C345.82 783.053 368.331 771.315 386.865 766.476C396.481 763.973 405.92 762.268 415.713 764.737C419.225 744.318 438.8 729.977 459.262 733.111L459.251 733.078Z" fill="#D46DA4"/>
<path d="M815.242 763.286C822.354 767.816 830.586 770.772 838.207 774.426C852.166 781.126 868.872 788.567 881.945 797.913C884.028 799.408 887.362 800.272 888.215 803.417L883.573 805.831C859.013 794.923 834.541 782.853 807.875 778.014C810.113 774.161 813.58 767.339 815.242 763.275V763.286Z" fill="#5A55AB"/>
<path d="M465.886 764.017C467.947 767.494 470.628 772.821 473.253 777.283C455.029 782.377 437.836 788.202 420.42 795.566C414.837 797.935 409.209 801.745 403.36 803.561C399.926 804.635 397.211 805.521 393.677 804.491C393.655 803.616 393.389 802.509 393.81 801.734C394.043 801.313 400.524 796.451 401.499 795.798C404.313 793.927 408.722 791.623 411.824 789.907C429.128 780.373 448.105 772.699 465.875 763.995L465.886 764.017Z" fill="#5A55AB"/>
<path d="M821.879 718.339C821.436 707.731 819.331 695.494 816.716 685.185C815.719 681.232 814.235 675.795 813.027 671.919C811.133 665.817 807.942 656.638 805.66 650.558C802.004 640.836 797.074 630.482 792.388 621.092C786.838 609.974 780.047 597.804 772.492 587.938C770.497 585.336 767.019 580.519 765.124 578.359C759.796 572.313 751.675 564.617 745.228 559.202C727.779 544.563 698.754 529.481 675.944 527.521C527.184 514.764 489.24 626.208 487.999 624.026C484.931 630.305 480.001 637.735 479.159 644.656C478.782 647.712 478.55 650.924 477.686 654.235C479.934 654.345 478.35 713.954 483.579 752.955C488.675 763.762 502.833 784.558 512.339 791.623C513.901 792.786 515.884 793.395 518.055 794.923C525.799 800.415 535.736 807.27 544.266 811.29C554.713 816.217 568.196 817.756 578.975 820.879C580.027 821.178 579.928 822.651 580.227 822.861C580.36 822.95 582.121 822.097 583.351 822.241C586.608 822.629 591.438 823.88 595.16 824.511C655.859 834.81 712.247 826.427 770.431 807.979C774.574 806.661 778.939 802.818 783.559 805.266C789.619 799.939 795.878 794.702 800.819 788.257C802.758 785.732 806.347 780.649 807.887 778.003C810.125 774.149 813.592 767.328 815.254 763.264C819.22 753.597 821.258 743.498 821.89 733.056C822.189 728.194 822.1 723.178 821.89 718.317L821.879 718.339Z" fill="#F3D5E6"/>
<path d="M477.686 654.246C475.892 661.067 472.978 667.346 471.881 674.588C468.281 698.185 473.432 731.417 483.591 752.955C488.687 763.762 502.845 784.558 512.34 791.623C513.902 792.786 515.885 793.395 518.056 794.923C525.8 800.415 535.737 807.27 544.267 811.29C554.714 816.217 568.197 817.757 578.976 820.879C580.028 821.178 579.929 822.651 580.228 822.861C580.361 822.95 582.122 822.097 583.352 822.241C586.609 822.629 591.439 823.88 595.161 824.511C655.86 834.81 712.248 826.427 770.432 807.979C774.575 806.661 778.94 802.818 783.56 805.266V806.008C756.495 829.428 721.898 840.191 687.012 845.795C689.405 848.973 692.784 851.431 695.852 853.889C694.745 854.321 693.548 855.008 692.374 855.185C662.44 859.658 636.373 863.147 605.785 858.086C600.745 857.256 595.117 855.882 590.464 853.878L595.615 845.783C591.073 845.717 572.185 841.299 564.663 839.15C538.617 832.019 518.987 823.825 498.325 805.996C488.942 797.902 479.57 787.969 473.266 777.261C470.641 772.798 467.96 767.472 465.899 763.995C465.733 763.718 466.076 761.847 465.722 760.883C462.432 751.759 459.928 742.601 459.263 733.056C458.953 728.67 459.008 722.735 459.263 718.317C459.784 709.281 462.21 693.966 464.426 685.163C465.268 681.819 467.616 675.817 468.846 671.897C471.062 664.821 473.776 657.579 476.213 650.536C476.9 648.543 477.62 646.151 479.16 644.645C478.783 647.701 478.551 650.913 477.686 654.224V654.246Z" fill="#B895CD"/>
<path d="M508.019 664.743C506.479 663.979 505.039 662.994 503.632 661.986C501.228 660.258 498.902 658.442 496.254 657.413C491.058 655.397 483.237 654.511 477.676 654.246C475.892 661.067 472.967 667.346 471.87 674.588C468.27 698.185 473.421 731.417 483.58 752.954C490.028 752.888 494.692 747.883 500.608 746.986C500.353 746.753 500.12 746.499 499.877 746.255C499.877 746.255 499.888 746.255 499.899 746.244L500.608 746.997C503.178 744.694 505.371 742.302 507.255 739.855C529.068 714.696 508.019 664.743 508.019 664.743Z" fill="#E595C1"/>
<path d="M740.819 635.443C739.534 623.55 712.692 611.967 702.278 613.905C698.855 614.536 692.418 618.345 692.174 622.243C692.141 622.764 693.426 630.271 693.714 630.969C696.174 637.115 704.671 642.242 711.008 643.161C714.375 643.648 718.53 643.006 722.053 643.172C729.032 643.515 742.082 647.037 740.831 635.454L740.819 635.443ZM734.582 638.82C733.53 640.348 724.346 637.691 721.92 637.392C717.522 636.86 712.813 637.181 708.471 636.096C704.449 635.099 694.789 627.237 698.002 622.885C698.733 621.9 703.807 619.01 705.136 618.888C707.418 618.678 711.75 620.028 714.276 620.35C714.985 620.438 715.76 620.283 716.491 620.35C721.41 622.62 728.622 625.155 731.979 629.552C733.353 631.346 735.945 636.838 734.593 638.809L734.582 638.82Z" fill="#282856"/>
<path d="M714.275 620.361C714.984 620.449 715.76 620.294 716.491 620.361C721.41 622.631 728.622 625.167 731.979 629.563C733.352 631.357 735.945 636.849 734.593 638.82C733.541 640.348 724.357 637.691 721.931 637.392C717.532 636.86 712.824 637.181 708.481 636.096C704.46 635.099 694.8 627.237 698.012 622.885C698.744 621.9 703.817 619.01 705.147 618.888C707.429 618.677 711.761 620.028 714.287 620.35L714.275 620.361Z" fill="#D46DA4"/>
<path d="M675.944 527.532C675.568 528.761 673.119 527.798 672.975 528.661C672.399 532.105 675.689 536.247 676.398 539.093C682.68 564.418 677.706 592.622 664.024 614.702C643.795 647.325 605.253 667.19 566.712 660.657C562.989 660.026 558.436 657.534 555.068 659.406C551.712 658.166 543.846 655.442 543.281 655.353C528.89 652.917 517.779 648.82 505.77 641.279C498.691 636.838 492.199 631.39 488 624.037C488.388 623.24 488.343 621.867 488.742 621.092C493.761 611.137 501.959 596.719 508.639 587.938C510.378 585.645 514.699 580.629 516.748 578.359C522.011 572.512 530.618 564.34 536.645 559.202C572.074 529.016 630.977 518.142 675.944 527.521V527.532Z" fill="#E595C1"/>
<path d="M574.045 613.916C579.163 613.318 587.594 615.843 589.244 621.236C590.142 624.181 588.613 623.971 588.269 625.92C587.173 632.165 587.782 633.173 582.342 637.68C574.277 644.368 568.539 642.663 559.089 643.161C553.118 643.482 541.463 647.004 540.344 637.591C539.912 633.948 541.917 631.479 544.033 628.843C550.271 621.081 564.24 615.057 574.045 613.905V613.916ZM576.006 634.668C579.495 632.697 585.511 627.891 583.428 623.318C579.961 615.688 565.127 620.173 559.344 622.786C552.741 625.765 545.341 631.368 546.969 639.518C547.534 640.072 558.014 637.636 559.953 637.392C565.725 636.672 571.054 637.458 576.006 634.668Z" fill="#282856"/>
<path d="M576.005 634.668C571.053 637.458 565.735 636.672 559.952 637.392C558.013 637.635 547.522 640.072 546.968 639.518C545.34 631.368 552.74 625.765 559.343 622.786C565.126 620.173 579.96 615.688 583.427 623.317C585.51 627.891 579.483 632.697 576.005 634.668Z" fill="#D46DA4"/>
<circle cx="744.5" cy="711.5" r="52.5" fill="white"/>
<path d="M797.608 711.163C797.608 740.253 774.022 763.828 744.919 763.828C715.816 763.828 692.23 740.253 692.23 711.163C692.23 682.073 715.816 658.498 744.919 658.498C774.022 658.498 797.608 682.073 797.608 711.163ZM793.254 711.141C793.254 684.443 771.607 662.805 744.897 662.805C718.187 662.805 696.54 684.443 696.54 711.141C696.54 737.839 718.187 759.477 744.897 759.477C771.607 759.477 793.254 737.839 793.254 711.141Z" fill="#282856"/>
<path d="M783.892 711.805C783.892 734.096 765.812 752.168 743.511 752.168C721.211 752.168 703.131 734.096 703.131 711.805C703.131 689.514 721.211 671.442 743.511 671.442C765.812 671.442 783.892 689.514 783.892 711.805Z" fill="#282856"/>
<path d="M761.957 734.317C761.636 734.528 761.924 735.358 760.584 735.513C750.613 736.698 741.285 730.918 741.097 720.276C740.842 706.235 756.618 700.942 766.843 708.538C776.869 715.991 770.665 728.792 761.957 734.306V734.317Z" fill="white"/>
<path d="M721.355 688.562C724.269 685.794 731.215 683.258 735.104 685.018C743.279 688.695 736.378 710.299 723.781 703.699C717.722 700.521 716.215 693.445 721.355 688.562Z" fill="white"/>
<path d="M589.699 711.185C589.699 682.118 566.125 658.553 537.044 658.553C507.963 658.553 484.389 682.118 484.389 711.185C484.389 740.253 507.963 763.818 537.044 763.818C566.125 763.818 589.699 740.253 589.699 711.185ZM585.368 711.141C585.368 684.454 563.721 662.816 537.022 662.816C510.323 662.816 488.676 684.454 488.676 711.141C488.676 737.828 510.323 759.466 537.022 759.466C563.721 759.466 585.368 737.828 585.368 711.141Z" fill="#282856"/>
<path d="M539.813 658.62C537.354 658.487 534.883 658.531 532.424 658.752C533.919 657.623 538.173 657.59 539.813 658.62Z" fill="#E595C1"/>
<path d="M585.368 711.141C585.368 737.828 563.721 759.466 537.022 759.466C510.323 759.466 488.676 737.828 488.676 711.141C488.676 684.454 510.323 662.816 537.022 662.816C563.721 662.816 585.368 684.454 585.368 711.141ZM578.743 711.794C578.743 689.548 560.696 671.509 538.44 671.509C516.183 671.509 498.137 689.548 498.137 711.794C498.137 734.041 516.183 752.08 538.44 752.08C560.696 752.08 578.743 734.041 578.743 711.794Z" fill="white"/>
<path d="M537.156 710.122C538.563 711.606 539.87 712.148 540.369 714.64C542.773 726.522 534.497 737.883 521.757 735.447C516.561 734.45 509.615 723.178 509.571 718.161C509.471 705.903 528.581 701.075 537.145 710.111L537.156 710.122Z" fill="white"/>
<path d="M555.091 684.841C555.291 684.93 555.379 685.838 555.823 686.082C560.586 688.684 564.53 691.087 563.345 697.498C562.503 702.105 553.33 707.066 549.597 704.308C549.253 704.054 544.19 698.118 544.035 697.72C542.728 694.497 543.094 686.823 546.605 685.185C548.145 684.465 553.662 684.232 555.091 684.852V684.841Z" fill="white"/>
<path d="M657.176 761.714L656.434 762.456C653.775 765.335 652.435 771.924 651.172 775.622L631.053 775.755C629.802 771.747 627.53 762.954 624.362 760.252C623.099 759.167 620.751 759.112 620.318 760.651C620.008 761.747 624.384 768.558 625.082 770.584C627.386 777.306 628.007 786.53 626.622 793.451C626.179 795.632 623.088 798.855 626.201 800.438C627.586 801.147 628.062 800.139 628.749 799.253C632.316 794.636 632.006 785.677 631.364 780.14H650.529V791.557C650.529 793.196 653.232 800.593 655.437 800.671C659.281 800.792 655.304 792.963 655.038 790.738C653.775 780.351 657.22 774.604 658.638 765.402C658.694 765.058 661.153 763.674 661.441 762.711C662.771 758.171 657.342 761.659 657.165 761.725L657.176 761.714Z" fill="#282856"/>
<rect width="438" height="142" transform="translate(422 882)" fill="#D9DE9E"/>
<path d="M450.541 960.939L455.639 939.406H458.486L459.137 942.992L453.705 965H450.646L450.541 960.939ZM447.922 939.406L452.141 960.939L451.789 965H448.379L442.701 939.406H447.922ZM463.619 960.852L467.785 939.406H473.006L467.346 965H463.936L463.619 960.852ZM460.086 939.406L465.219 961.027L465.078 965H462.02L456.553 942.975L457.256 939.406H460.086ZM483.746 965.352C482.27 965.352 480.945 965.117 479.773 964.648C478.602 964.168 477.605 963.506 476.785 962.662C475.977 961.818 475.355 960.84 474.922 959.727C474.488 958.602 474.271 957.406 474.271 956.141V955.438C474.271 953.996 474.477 952.678 474.887 951.482C475.297 950.287 475.883 949.25 476.645 948.371C477.418 947.492 478.355 946.818 479.457 946.35C480.559 945.869 481.801 945.629 483.184 945.629C484.531 945.629 485.727 945.852 486.77 946.297C487.812 946.742 488.686 947.375 489.389 948.195C490.104 949.016 490.643 950 491.006 951.148C491.369 952.285 491.551 953.551 491.551 954.945V957.055H476.434V953.68H486.576V953.293C486.576 952.59 486.447 951.963 486.189 951.412C485.943 950.85 485.568 950.404 485.064 950.076C484.561 949.748 483.916 949.584 483.131 949.584C482.463 949.584 481.889 949.73 481.408 950.023C480.928 950.316 480.535 950.727 480.23 951.254C479.938 951.781 479.715 952.402 479.562 953.117C479.422 953.82 479.352 954.594 479.352 955.438V956.141C479.352 956.902 479.457 957.605 479.668 958.25C479.891 958.895 480.201 959.451 480.6 959.92C481.01 960.389 481.502 960.752 482.076 961.01C482.662 961.268 483.324 961.396 484.062 961.396C484.977 961.396 485.826 961.221 486.611 960.869C487.408 960.506 488.094 959.961 488.668 959.234L491.129 961.906C490.73 962.48 490.186 963.031 489.494 963.559C488.814 964.086 487.994 964.52 487.033 964.859C486.072 965.188 484.977 965.352 483.746 965.352ZM499.777 938V965H494.697V938H499.777ZM511.818 961.396C512.439 961.396 512.99 961.279 513.471 961.045C513.951 960.799 514.326 960.459 514.596 960.025C514.877 959.58 515.023 959.059 515.035 958.461H519.799C519.787 959.797 519.43 960.986 518.727 962.029C518.023 963.061 517.08 963.875 515.896 964.473C514.713 965.059 513.389 965.352 511.924 965.352C510.447 965.352 509.158 965.105 508.057 964.613C506.967 964.121 506.059 963.441 505.332 962.574C504.605 961.695 504.061 960.676 503.697 959.516C503.334 958.344 503.152 957.09 503.152 955.754V955.244C503.152 953.896 503.334 952.643 503.697 951.482C504.061 950.311 504.605 949.291 505.332 948.424C506.059 947.545 506.967 946.859 508.057 946.367C509.146 945.875 510.424 945.629 511.889 945.629C513.447 945.629 514.812 945.928 515.984 946.525C517.168 947.123 518.094 947.979 518.762 949.092C519.441 950.193 519.787 951.5 519.799 953.012H515.035C515.023 952.379 514.889 951.805 514.631 951.289C514.385 950.773 514.021 950.363 513.541 950.059C513.072 949.742 512.492 949.584 511.801 949.584C511.062 949.584 510.459 949.742 509.99 950.059C509.521 950.363 509.158 950.785 508.9 951.324C508.643 951.852 508.461 952.455 508.355 953.135C508.262 953.803 508.215 954.506 508.215 955.244V955.754C508.215 956.492 508.262 957.201 508.355 957.881C508.449 958.561 508.625 959.164 508.883 959.691C509.152 960.219 509.521 960.635 509.99 960.939C510.459 961.244 511.068 961.396 511.818 961.396ZM521.926 955.684V955.314C521.926 953.92 522.125 952.637 522.523 951.465C522.922 950.281 523.502 949.256 524.264 948.389C525.025 947.521 525.963 946.848 527.076 946.367C528.189 945.875 529.467 945.629 530.908 945.629C532.35 945.629 533.633 945.875 534.758 946.367C535.883 946.848 536.826 947.521 537.588 948.389C538.361 949.256 538.947 950.281 539.346 951.465C539.744 952.637 539.943 953.92 539.943 955.314V955.684C539.943 957.066 539.744 958.35 539.346 959.533C538.947 960.705 538.361 961.73 537.588 962.609C536.826 963.477 535.889 964.15 534.775 964.631C533.662 965.111 532.385 965.352 530.943 965.352C529.502 965.352 528.219 965.111 527.094 964.631C525.98 964.15 525.037 963.477 524.264 962.609C523.502 961.73 522.922 960.705 522.523 959.533C522.125 958.35 521.926 957.066 521.926 955.684ZM526.988 955.314V955.684C526.988 956.48 527.059 957.225 527.199 957.916C527.34 958.607 527.562 959.217 527.867 959.744C528.184 960.26 528.594 960.664 529.098 960.957C529.602 961.25 530.217 961.396 530.943 961.396C531.646 961.396 532.25 961.25 532.754 960.957C533.258 960.664 533.662 960.26 533.967 959.744C534.271 959.217 534.494 958.607 534.635 957.916C534.787 957.225 534.863 956.48 534.863 955.684V955.314C534.863 954.541 534.787 953.814 534.635 953.135C534.494 952.443 534.266 951.834 533.949 951.307C533.645 950.768 533.24 950.346 532.736 950.041C532.232 949.736 531.623 949.584 530.908 949.584C530.193 949.584 529.584 949.736 529.08 950.041C528.588 950.346 528.184 950.768 527.867 951.307C527.562 951.834 527.34 952.443 527.199 953.135C527.059 953.814 526.988 954.541 526.988 955.314ZM548.117 949.918V965H543.037V945.98H547.801L548.117 949.918ZM547.414 954.822H546.008C546.008 953.498 546.166 952.279 546.482 951.166C546.811 950.041 547.285 949.068 547.906 948.248C548.539 947.416 549.318 946.771 550.244 946.314C551.17 945.857 552.242 945.629 553.461 945.629C554.305 945.629 555.078 945.758 555.781 946.016C556.484 946.262 557.088 946.654 557.592 947.193C558.107 947.721 558.506 948.412 558.787 949.268C559.068 950.111 559.209 951.125 559.209 952.309V965H554.146V952.871C554.146 952.004 554.029 951.336 553.795 950.867C553.561 950.398 553.227 950.07 552.793 949.883C552.371 949.695 551.861 949.602 551.264 949.602C550.607 949.602 550.033 949.736 549.541 950.006C549.061 950.275 548.662 950.65 548.346 951.131C548.029 951.6 547.795 952.15 547.643 952.783C547.49 953.416 547.414 954.096 547.414 954.822ZM558.734 954.242L556.924 954.471C556.924 953.229 557.076 952.074 557.381 951.008C557.697 949.941 558.16 949.004 558.77 948.195C559.391 947.387 560.158 946.76 561.072 946.314C561.986 945.857 563.041 945.629 564.236 945.629C565.15 945.629 565.982 945.764 566.732 946.033C567.482 946.291 568.121 946.707 568.648 947.281C569.188 947.844 569.598 948.582 569.879 949.496C570.172 950.41 570.318 951.529 570.318 952.854V965H565.238V952.854C565.238 951.975 565.121 951.307 564.887 950.85C564.664 950.381 564.336 950.059 563.902 949.883C563.48 949.695 562.977 949.602 562.391 949.602C561.781 949.602 561.248 949.725 560.791 949.971C560.334 950.205 559.953 950.533 559.648 950.955C559.344 951.377 559.115 951.869 558.963 952.432C558.811 952.982 558.734 953.586 558.734 954.242ZM582.992 965.352C581.516 965.352 580.191 965.117 579.02 964.648C577.848 964.168 576.852 963.506 576.031 962.662C575.223 961.818 574.602 960.84 574.168 959.727C573.734 958.602 573.518 957.406 573.518 956.141V955.438C573.518 953.996 573.723 952.678 574.133 951.482C574.543 950.287 575.129 949.25 575.891 948.371C576.664 947.492 577.602 946.818 578.703 946.35C579.805 945.869 581.047 945.629 582.43 945.629C583.777 945.629 584.973 945.852 586.016 946.297C587.059 946.742 587.932 947.375 588.635 948.195C589.35 949.016 589.889 950 590.252 951.148C590.615 952.285 590.797 953.551 590.797 954.945V957.055H575.68V953.68H585.822V953.293C585.822 952.59 585.693 951.963 585.436 951.412C585.189 950.85 584.814 950.404 584.311 950.076C583.807 949.748 583.162 949.584 582.377 949.584C581.709 949.584 581.135 949.73 580.654 950.023C580.174 950.316 579.781 950.727 579.477 951.254C579.184 951.781 578.961 952.402 578.809 953.117C578.668 953.82 578.598 954.594 578.598 955.438V956.141C578.598 956.902 578.703 957.605 578.914 958.25C579.137 958.895 579.447 959.451 579.846 959.92C580.256 960.389 580.748 960.752 581.322 961.01C581.908 961.268 582.57 961.396 583.309 961.396C584.223 961.396 585.072 961.221 585.857 960.869C586.654 960.506 587.34 959.961 587.914 959.234L590.375 961.906C589.977 962.48 589.432 963.031 588.74 963.559C588.061 964.086 587.24 964.52 586.279 964.859C585.318 965.188 584.223 965.352 582.992 965.352ZM611.961 945.98V949.566H600.887V945.98H611.961ZM603.629 941.287H608.691V959.27C608.691 959.82 608.762 960.242 608.902 960.535C609.055 960.828 609.277 961.033 609.57 961.15C609.863 961.256 610.232 961.309 610.678 961.309C610.994 961.309 611.275 961.297 611.521 961.273C611.779 961.238 611.996 961.203 612.172 961.168L612.189 964.895C611.756 965.035 611.287 965.146 610.783 965.229C610.279 965.311 609.723 965.352 609.113 965.352C608 965.352 607.027 965.17 606.195 964.807C605.375 964.432 604.742 963.834 604.297 963.014C603.852 962.193 603.629 961.115 603.629 959.779V941.287ZM613.578 955.684V955.314C613.578 953.92 613.777 952.637 614.176 951.465C614.574 950.281 615.154 949.256 615.916 948.389C616.678 947.521 617.615 946.848 618.729 946.367C619.842 945.875 621.119 945.629 622.561 945.629C624.002 945.629 625.285 945.875 626.41 946.367C627.535 946.848 628.479 947.521 629.24 948.389C630.014 949.256 630.6 950.281 630.998 951.465C631.396 952.637 631.596 953.92 631.596 955.314V955.684C631.596 957.066 631.396 958.35 630.998 959.533C630.6 960.705 630.014 961.73 629.24 962.609C628.479 963.477 627.541 964.15 626.428 964.631C625.314 965.111 624.037 965.352 622.596 965.352C621.154 965.352 619.871 965.111 618.746 964.631C617.633 964.15 616.689 963.477 615.916 962.609C615.154 961.73 614.574 960.705 614.176 959.533C613.777 958.35 613.578 957.066 613.578 955.684ZM618.641 955.314V955.684C618.641 956.48 618.711 957.225 618.852 957.916C618.992 958.607 619.215 959.217 619.52 959.744C619.836 960.26 620.246 960.664 620.75 960.957C621.254 961.25 621.869 961.396 622.596 961.396C623.299 961.396 623.902 961.25 624.406 960.957C624.91 960.664 625.314 960.26 625.619 959.744C625.924 959.217 626.146 958.607 626.287 957.916C626.439 957.225 626.516 956.48 626.516 955.684V955.314C626.516 954.541 626.439 953.814 626.287 953.135C626.146 952.443 625.918 951.834 625.602 951.307C625.297 950.768 624.893 950.346 624.389 950.041C623.885 949.736 623.275 949.584 622.561 949.584C621.846 949.584 621.236 949.736 620.732 950.041C620.24 950.346 619.836 950.768 619.52 951.307C619.215 951.834 618.992 952.443 618.852 953.135C618.711 953.814 618.641 954.541 618.641 955.314ZM658.121 939.406H663.377V956.316C663.377 958.285 662.955 959.943 662.111 961.291C661.279 962.639 660.125 963.652 658.648 964.332C657.184 965.012 655.496 965.352 653.586 965.352C651.676 965.352 649.977 965.012 648.488 964.332C647.012 963.652 645.852 962.639 645.008 961.291C644.176 959.943 643.76 958.285 643.76 956.316V939.406H649.033V956.316C649.033 957.465 649.215 958.402 649.578 959.129C649.941 959.855 650.463 960.389 651.143 960.729C651.834 961.068 652.648 961.238 653.586 961.238C654.547 961.238 655.361 961.068 656.029 960.729C656.709 960.389 657.225 959.855 657.576 959.129C657.939 958.402 658.121 957.465 658.121 956.316V939.406ZM666.594 955.684V955.314C666.594 953.92 666.793 952.637 667.191 951.465C667.59 950.281 668.17 949.256 668.932 948.389C669.693 947.521 670.631 946.848 671.744 946.367C672.857 945.875 674.135 945.629 675.576 945.629C677.018 945.629 678.301 945.875 679.426 946.367C680.551 946.848 681.494 947.521 682.256 948.389C683.029 949.256 683.615 950.281 684.014 951.465C684.412 952.637 684.611 953.92 684.611 955.314V955.684C684.611 957.066 684.412 958.35 684.014 959.533C683.615 960.705 683.029 961.73 682.256 962.609C681.494 963.477 680.557 964.15 679.443 964.631C678.33 965.111 677.053 965.352 675.611 965.352C674.17 965.352 672.887 965.111 671.762 964.631C670.648 964.15 669.705 963.477 668.932 962.609C668.17 961.73 667.59 960.705 667.191 959.533C666.793 958.35 666.594 957.066 666.594 955.684ZM671.656 955.314V955.684C671.656 956.48 671.727 957.225 671.867 957.916C672.008 958.607 672.23 959.217 672.535 959.744C672.852 960.26 673.262 960.664 673.766 960.957C674.27 961.25 674.885 961.396 675.611 961.396C676.314 961.396 676.918 961.25 677.422 960.957C677.926 960.664 678.33 960.26 678.635 959.744C678.939 959.217 679.162 958.607 679.303 957.916C679.455 957.225 679.531 956.48 679.531 955.684V955.314C679.531 954.541 679.455 953.814 679.303 953.135C679.162 952.443 678.934 951.834 678.617 951.307C678.312 950.768 677.908 950.346 677.404 950.041C676.9 949.736 676.291 949.584 675.576 949.584C674.861 949.584 674.252 949.736 673.748 950.041C673.256 950.346 672.852 950.768 672.535 951.307C672.23 951.834 672.008 952.443 671.867 953.135C671.727 953.814 671.656 954.541 671.656 955.314ZM694.174 965H689.076V944.293C689.076 942.852 689.357 941.639 689.92 940.654C690.494 939.658 691.297 938.908 692.328 938.404C693.371 937.889 694.607 937.631 696.037 937.631C696.506 937.631 696.957 937.666 697.391 937.736C697.824 937.795 698.246 937.871 698.656 937.965L698.604 941.779C698.381 941.721 698.146 941.68 697.9 941.656C697.654 941.633 697.367 941.621 697.039 941.621C696.43 941.621 695.908 941.727 695.475 941.938C695.053 942.137 694.73 942.436 694.508 942.834C694.285 943.232 694.174 943.719 694.174 944.293V965ZM697.971 945.98V949.566H686.246V945.98H697.971ZM712.385 939.406V965H707.129V939.406H712.385ZM720.26 939.406V943.537H699.377V939.406H720.26ZM748.35 949.83V953.943H734.99V949.83H748.35ZM736.555 939.406V965H731.281V939.406H736.555ZM752.111 939.406V965H746.855V939.406H752.111ZM766.648 960.711V952.238C766.648 951.629 766.549 951.107 766.35 950.674C766.15 950.229 765.84 949.883 765.418 949.637C765.008 949.391 764.475 949.268 763.818 949.268C763.256 949.268 762.77 949.367 762.359 949.566C761.949 949.754 761.633 950.029 761.41 950.393C761.188 950.744 761.076 951.16 761.076 951.641H756.014C756.014 950.832 756.201 950.064 756.576 949.338C756.951 948.611 757.496 947.973 758.211 947.422C758.926 946.859 759.775 946.42 760.76 946.104C761.756 945.787 762.869 945.629 764.1 945.629C765.576 945.629 766.889 945.875 768.037 946.367C769.186 946.859 770.088 947.598 770.744 948.582C771.412 949.566 771.746 950.797 771.746 952.273V960.412C771.746 961.455 771.811 962.311 771.939 962.979C772.068 963.635 772.256 964.209 772.502 964.701V965H767.387C767.141 964.484 766.953 963.84 766.824 963.066C766.707 962.281 766.648 961.496 766.648 960.711ZM767.316 953.416L767.352 956.281H764.521C763.854 956.281 763.273 956.357 762.781 956.51C762.289 956.662 761.885 956.879 761.568 957.16C761.252 957.43 761.018 957.746 760.865 958.109C760.725 958.473 760.654 958.871 760.654 959.305C760.654 959.738 760.754 960.131 760.953 960.482C761.152 960.822 761.439 961.092 761.814 961.291C762.189 961.479 762.629 961.572 763.133 961.572C763.895 961.572 764.557 961.42 765.119 961.115C765.682 960.811 766.115 960.436 766.42 959.99C766.736 959.545 766.9 959.123 766.912 958.725L768.248 960.869C768.061 961.35 767.803 961.848 767.475 962.363C767.158 962.879 766.754 963.365 766.262 963.822C765.77 964.268 765.178 964.637 764.486 964.93C763.795 965.211 762.975 965.352 762.025 965.352C760.818 965.352 759.723 965.111 758.738 964.631C757.766 964.139 756.992 963.465 756.418 962.609C755.855 961.742 755.574 960.758 755.574 959.656C755.574 958.66 755.762 957.775 756.137 957.002C756.512 956.229 757.062 955.578 757.789 955.051C758.527 954.512 759.447 954.107 760.549 953.838C761.65 953.557 762.928 953.416 764.381 953.416H767.316ZM783.506 961.396C784.127 961.396 784.678 961.279 785.158 961.045C785.639 960.799 786.014 960.459 786.283 960.025C786.564 959.58 786.711 959.059 786.723 958.461H791.486C791.475 959.797 791.117 960.986 790.414 962.029C789.711 963.061 788.768 963.875 787.584 964.473C786.4 965.059 785.076 965.352 783.611 965.352C782.135 965.352 780.846 965.105 779.744 964.613C778.654 964.121 777.746 963.441 777.02 962.574C776.293 961.695 775.748 960.676 775.385 959.516C775.021 958.344 774.84 957.09 774.84 955.754V955.244C774.84 953.896 775.021 952.643 775.385 951.482C775.748 950.311 776.293 949.291 777.02 948.424C777.746 947.545 778.654 946.859 779.744 946.367C780.834 945.875 782.111 945.629 783.576 945.629C785.135 945.629 786.5 945.928 787.672 946.525C788.855 947.123 789.781 947.979 790.449 949.092C791.129 950.193 791.475 951.5 791.486 953.012H786.723C786.711 952.379 786.576 951.805 786.318 951.289C786.072 950.773 785.709 950.363 785.229 950.059C784.76 949.742 784.18 949.584 783.488 949.584C782.75 949.584 782.146 949.742 781.678 950.059C781.209 950.363 780.846 950.785 780.588 951.324C780.33 951.852 780.148 952.455 780.043 953.135C779.949 953.803 779.902 954.506 779.902 955.244V955.754C779.902 956.492 779.949 957.201 780.043 957.881C780.137 958.561 780.312 959.164 780.57 959.691C780.84 960.219 781.209 960.635 781.678 960.939C782.146 961.244 782.756 961.396 783.506 961.396ZM799.484 937.982V965H794.422V937.982H799.484ZM811.473 945.98L803.211 955.402L798.781 959.885L796.936 956.229L800.451 951.764L805.391 945.98H811.473ZM806.217 965L800.592 956.211L804.09 953.152L812.053 965H806.217ZM823.936 959.744C823.936 959.381 823.83 959.053 823.619 958.76C823.408 958.467 823.016 958.197 822.441 957.951C821.879 957.693 821.064 957.459 819.998 957.248C819.037 957.037 818.141 956.773 817.309 956.457C816.488 956.129 815.773 955.736 815.164 955.279C814.566 954.822 814.098 954.283 813.758 953.662C813.418 953.029 813.248 952.309 813.248 951.5C813.248 950.703 813.418 949.953 813.758 949.25C814.109 948.547 814.607 947.926 815.252 947.387C815.908 946.836 816.705 946.408 817.643 946.104C818.592 945.787 819.658 945.629 820.842 945.629C822.494 945.629 823.912 945.893 825.096 946.42C826.291 946.947 827.205 947.674 827.838 948.6C828.482 949.514 828.805 950.557 828.805 951.729H823.742C823.742 951.236 823.637 950.797 823.426 950.41C823.227 950.012 822.91 949.701 822.477 949.479C822.055 949.244 821.504 949.127 820.824 949.127C820.262 949.127 819.775 949.227 819.365 949.426C818.955 949.613 818.639 949.871 818.416 950.199C818.205 950.516 818.1 950.867 818.1 951.254C818.1 951.547 818.158 951.811 818.275 952.045C818.404 952.268 818.609 952.473 818.891 952.66C819.172 952.848 819.535 953.023 819.98 953.188C820.438 953.34 821 953.48 821.668 953.609C823.039 953.891 824.264 954.26 825.342 954.717C826.42 955.162 827.275 955.771 827.908 956.545C828.541 957.307 828.857 958.309 828.857 959.551C828.857 960.395 828.67 961.168 828.295 961.871C827.92 962.574 827.381 963.189 826.678 963.717C825.975 964.232 825.131 964.637 824.146 964.93C823.174 965.211 822.078 965.352 820.859 965.352C819.09 965.352 817.59 965.035 816.359 964.402C815.141 963.77 814.215 962.967 813.582 961.994C812.961 961.01 812.65 960.002 812.65 958.971H817.449C817.473 959.662 817.648 960.219 817.977 960.641C818.316 961.062 818.744 961.367 819.26 961.555C819.787 961.742 820.355 961.836 820.965 961.836C821.621 961.836 822.166 961.748 822.6 961.572C823.033 961.385 823.361 961.139 823.584 960.834C823.818 960.518 823.936 960.154 823.936 959.744ZM837.857 939.406L837.277 957.178H833.059L832.461 939.406H837.857ZM832.32 962.68C832.32 961.93 832.578 961.309 833.094 960.816C833.621 960.312 834.312 960.061 835.168 960.061C836.035 960.061 836.727 960.312 837.242 960.816C837.758 961.309 838.016 961.93 838.016 962.68C838.016 963.406 837.758 964.021 837.242 964.525C836.727 965.029 836.035 965.281 835.168 965.281C834.312 965.281 833.621 965.029 833.094 964.525C832.578 964.021 832.32 963.406 832.32 962.68Z" fill="#6C4D14"/>
</svg>
