<svg width="370" height="379" viewBox="0 0 370 379" fill="none" xmlns="http://www.w3.org/2000/svg">
<path d="M63.5684 321.338L68.171 327.776L76.0544 328.473L69.6162 333.076L68.9194 340.959L64.3168 334.521L56.4333 333.824L62.8715 329.222L63.5684 321.338Z" fill="#BFF6FF"/>
<path d="M122.129 15.128L124.531 55.5443L156.775 80.0299L116.359 82.4313L91.8735 114.676L89.4721 74.2595L57.2275 49.774L97.6439 47.3725L122.129 15.128Z" fill="#BFF6FF"/>
<path d="M327.334 288.215L340.27 306.481L362.557 308.551L344.291 321.486L342.221 343.773L329.285 325.507L306.999 323.437L325.264 310.501L327.334 288.215Z" fill="#BFF6FF"/>
<path d="M49.3142 162.733L41.8593 179.269L49.559 195.691L33.0239 188.236L16.6013 195.936L24.0562 179.401L16.3564 162.978L32.8916 170.433L49.3142 162.733Z" fill="#BFF6FF"/>
<path d="M195.935 134.03L196.066 155.007L212.077 168.563L191.099 168.694L177.544 184.704L177.412 163.727L161.402 150.171L182.38 150.04L195.935 134.03Z" fill="#BFF6FF"/>
<path d="M136.916 133.714L136.718 143.997L144.395 150.841L134.112 150.643L127.267 158.32L127.466 148.037L119.789 141.193L130.072 141.391L136.916 133.714Z" fill="#BFF6FF"/>
<path d="M265.223 330.244L265.315 344.846L276.458 354.281L261.857 354.372L252.422 365.516L252.331 350.915L241.187 341.48L255.788 341.388L265.223 330.244Z" fill="#BFF6FF"/>
<path d="M168.318 269.705C169.825 270.35 171.648 270.795 173.28 271.067C183.186 272.706 191.627 271.577 201.321 270.128C201.701 270.071 202.089 269.848 202.448 269.708C207.887 274.076 214.918 278.34 221.304 281.159C221.283 284.02 221.591 287.162 222.485 289.88C222.664 290.421 223.41 292.171 223.69 292.613C223.109 292.523 222.366 292.437 221.839 292.204C217.688 290.382 210.229 285.752 206.864 282.589C206.383 282.138 206.053 281.327 205.433 280.922C205.142 281.012 205.364 281.431 205.433 281.636C206.563 285.035 207.822 288.722 208.654 292.132C210.699 300.513 211.535 309.137 211.051 317.79C210.771 322.8 208.999 329.061 209.601 334.01C209.749 335.222 211.481 338.184 211.998 339.726C212.26 340.508 212.963 342.33 212.881 343.043C212.751 344.162 211.438 344.015 211.306 344.169C211.094 344.41 211.603 345.798 210.947 346.314C210.269 346.848 208.841 346.296 208.091 346.561C207.521 346.762 207.485 348.946 205.382 348.258C202.509 347.314 200.496 345.07 198.63 342.954C198.508 339.891 198.049 336.832 197.909 333.781C197.751 330.345 197.59 326.479 197.934 323.073C198.128 321.143 199.104 320.781 200.779 320.042C201.034 319.695 198.975 317.701 198.526 317.683C198.286 317.672 197.938 317.869 197.576 317.88C196.263 317.927 196.79 318.124 196.593 318.153C196.298 318.196 195.369 317.636 194.447 317.647C191.728 317.668 188.589 318.454 185.851 318.626C185.109 318.673 183.207 318.328 182.551 318.436C182.31 318.475 182.174 318.791 182.041 318.855C181.851 318.945 182.023 318.454 181.765 318.382C180.455 318.02 176.409 317.719 174.891 317.65C173.739 317.6 172.774 318.246 171.906 317.428C171.931 318.45 170.851 317.306 169.919 317.891C169.836 317.941 168.767 319.35 168.77 319.447C168.839 321.129 170.984 320.444 171.181 322.312C171.544 325.737 171.246 329.406 171.429 332.802L170.464 343.908C169.215 345.184 165.409 348.444 163.662 348.455C162.062 348.466 162.162 346.78 161.832 346.572C161.405 346.307 159.762 346.773 159.005 346.414C158.072 345.97 158.413 344.356 158.262 344.173C157.982 343.832 156.752 344.528 156.852 342.606C156.989 339.981 159.697 336.449 159.966 334.25C160.494 329.926 159.407 325.049 159.005 320.763C159.751 320.709 160.576 320.419 161.211 320.035C161.789 319.687 163.909 317.109 164.354 316.442C166.162 313.738 167.899 310.227 166.987 306.939C166.783 306.207 165.326 304.676 164.684 304.231C163.192 303.191 160.964 303.166 159.249 303.582C159.385 302.438 159.181 301.144 159.561 299.96L162.234 287.599C160.835 290.332 159.769 293.315 158.273 295.998C158.162 296.199 157.907 296.238 157.749 296.489C157.509 296.873 157.279 297.805 157.039 298.035C156.798 298.268 156.185 298.282 156.142 298.343C156.081 298.426 156.483 299.401 155.873 300.333C155.439 301 154.467 302.051 154.029 302.772C152.167 305.842 150.319 308.703 148.364 311.68C147.919 312.354 146.821 312.763 146.832 314.079C145.914 314.796 144.852 316.058 143.653 315.047C142.782 314.308 143.643 312.404 143.467 311.852C143.287 311.278 142.376 311.522 142.161 310.758C141.623 308.85 142.9 306.164 143.757 304.443C149.756 292.362 159.511 279.735 168.311 269.701L168.318 269.705Z" fill="#F3D5E6"/>
<path d="M170.464 343.905L171.429 332.799C171.242 329.4 171.544 325.735 171.181 322.31C170.984 320.442 168.839 321.127 168.771 319.445C168.767 319.348 169.836 317.939 169.919 317.888C170.848 317.304 171.928 318.448 171.906 317.426C172.774 318.243 173.743 317.598 174.891 317.648C176.409 317.716 180.455 318.017 181.765 318.38C182.027 318.451 181.851 318.946 182.041 318.853C182.17 318.792 182.31 318.473 182.551 318.433C183.207 318.329 185.109 318.67 185.851 318.624C188.589 318.451 191.731 317.666 194.447 317.645C195.369 317.637 196.302 318.193 196.593 318.15C196.79 318.121 196.263 317.924 197.576 317.878C197.938 317.863 198.286 317.67 198.526 317.68C198.975 317.698 201.034 319.689 200.78 320.04C199.104 320.779 198.128 321.141 197.935 323.07C197.59 326.473 197.752 330.343 197.909 333.778C198.049 336.83 198.509 339.889 198.631 342.951C198.598 342.916 198.239 342.926 198.053 342.7C193.378 337.013 191.864 328.428 191.71 321.238C187.042 321.855 182.533 321.855 177.865 321.238C177.991 329.127 176.104 338.132 170.467 343.905H170.464Z" fill="#C4ACD2"/>
<path d="M221.304 281.16C225.792 283.143 230.105 283.856 234.614 285.391C235.698 285.76 236.785 286.076 236.839 287.485C236.864 288.192 236.336 288.794 236.39 289.106C236.545 290.01 237.872 290.401 237.481 292.441C237.201 293.904 234.557 293.671 234.435 293.8C234.385 293.854 234.485 294.622 234.195 295.231C232.404 295.299 230.761 295.253 229.025 294.794C228.462 294.643 228.139 294.259 227.762 294.148C226.65 293.818 224.386 293.689 223.694 292.606C223.414 292.169 222.668 290.415 222.488 289.874C221.595 287.155 221.283 284.014 221.308 281.152L221.304 281.16Z" fill="#E8A8CB"/>
<path d="M159.245 303.584C160.964 303.168 163.188 303.193 164.68 304.233C165.323 304.677 166.779 306.209 166.984 306.94C167.898 310.229 166.162 313.739 164.35 316.443C163.905 317.107 161.785 319.685 161.207 320.037C160.572 320.42 159.747 320.707 159.001 320.765C158.836 318.989 158.524 316.605 158.524 314.919V309.192C158.524 308.249 158.667 306.298 158.764 305.255C158.815 304.703 159.198 303.957 159.241 303.584H159.245Z" fill="#E8A8CB"/>
<path d="M208.655 292.132C207.822 288.718 206.563 285.035 205.433 281.636C205.365 281.431 205.142 281.012 205.433 280.922C206.057 281.327 206.384 282.138 206.864 282.589C210.229 285.752 217.688 290.378 221.839 292.204C222.366 292.437 223.113 292.523 223.69 292.612C224.379 293.695 226.647 293.825 227.759 294.154C228.135 294.266 228.462 294.649 229.022 294.8C230.758 295.259 232.405 295.306 234.191 295.237C233.409 296.876 229.736 296.525 228.096 296.439C221.391 296.095 215.091 293.735 208.655 292.136V292.132Z" fill="#C4ACD2"/>
<path d="M159.245 303.583C159.202 303.952 158.818 304.702 158.768 305.254C155.902 308.69 152.827 311.953 149.688 315.145C148.741 315.916 146.846 315.388 146.836 314.083C146.825 312.767 147.923 312.358 148.367 311.684C150.323 308.708 152.17 305.846 154.032 302.776C154.47 302.055 155.442 301.005 155.876 300.338C156.486 299.402 156.084 298.43 156.145 298.347C156.189 298.29 156.802 298.276 157.042 298.039C157.283 297.806 157.509 296.877 157.753 296.493C157.911 296.239 158.165 296.203 158.277 296.002C159.769 293.32 160.835 290.34 162.237 287.604L159.565 299.965C159.184 301.148 159.385 302.446 159.252 303.587L159.245 303.583Z" fill="#C4ACD2"/>
<path d="M234.03 194.66C232.232 191.06 230.033 187.118 227.586 183.923C228.207 183.396 228.828 182.858 229.38 182.256C236.236 174.793 242.751 166.857 250.257 159.943C251.247 159.032 252.657 158.24 253.615 157.329C254.12 156.848 255.649 155.235 255.448 154.625C255.437 154.589 254.895 154.116 254.856 154.105C253.231 153.772 251.247 156.264 249.761 157.06C248.373 157.802 247.91 157.426 246.507 158.702C240.437 164.218 233.639 170.508 228.286 176.869C227.202 178.157 226.198 179.469 225.197 180.821C223.471 178.863 220.841 176.371 218.753 174.617C219.048 166.986 223.869 157.845 232.566 158.125C235.436 149.705 240.954 141.561 248.61 136.824C253.328 133.901 257.834 132.137 263.233 134.572C275.255 139.987 271.029 156.762 263.986 164.602C261.141 167.768 257.837 169.5 254.103 171.394C256.474 175.134 255.717 179.867 253.554 183.518C249.65 190.109 241.27 193.376 234.03 194.66Z" fill="#DF80B3"/>
<path d="M225.197 180.825C226.201 179.476 227.202 178.164 228.286 176.873C233.639 170.511 240.437 164.221 246.507 158.706C247.91 157.433 248.373 157.806 249.761 157.064C251.247 156.271 253.231 153.775 254.856 154.109C254.895 154.116 255.433 154.589 255.448 154.629C255.649 155.235 254.12 156.852 253.615 157.332C252.653 158.243 251.243 159.032 250.257 159.947C242.751 166.864 236.232 174.797 229.38 182.259C228.827 182.862 228.207 183.4 227.586 183.927C226.94 183.084 225.814 181.524 225.2 180.825H225.197Z" fill="#6864AD"/>
<path d="M135.692 194.659C130.027 193.558 124.215 191.593 119.827 187.734C116.107 184.464 113.341 179.167 114.561 174.132C114.826 173.039 115.443 172.239 115.544 171.274C106.736 167.595 100.637 159.817 99.2415 150.339C97.3544 137.562 107.683 129.439 119.386 135.69C127.957 140.269 134.11 149.066 137.357 158.049C146.186 158.085 150.545 166.867 151.212 174.62C149.26 176.284 146.469 178.93 144.769 180.824C143.585 179.58 142.659 178.059 141.554 176.754C136.115 170.327 129.331 164.073 123.06 158.508C121.747 157.342 121.015 157.762 119.662 156.887C118.622 156.213 116.638 153.914 115.314 154.104C115.196 154.122 114.27 154.56 114.234 154.61C113.524 155.625 119.476 159.788 120.186 160.426C121.955 162.011 123.663 163.847 125.324 165.551C131.118 171.482 136.384 177.977 142.143 183.933C139.979 186.777 137.324 191.446 135.699 194.67L135.692 194.659Z" fill="#DF80B3"/>
<path d="M142.136 183.926C136.377 177.973 131.111 171.479 125.317 165.544C123.656 163.84 121.948 162.008 120.179 160.419C119.469 159.781 113.517 155.614 114.227 154.603C114.263 154.552 115.189 154.115 115.307 154.097C116.631 153.907 118.615 156.209 119.655 156.88C121.008 157.755 121.736 157.335 123.053 158.501C129.324 164.066 136.112 170.32 141.547 176.747C142.649 178.052 143.578 179.572 144.762 180.817C144.098 181.552 142.702 183.176 142.136 183.919V183.926Z" fill="#6864AD"/>
<path d="M243.576 226.152C243.433 222.717 242.751 218.754 241.905 215.415C243.695 215.767 245.643 214.741 247.343 214.293C253.812 212.586 260.27 210.94 266.875 209.717C267.789 209.549 268.439 209.212 268.536 209.208C269.461 209.169 270.502 209.283 271.56 209.151C273.185 208.95 273.982 208.706 275.399 208.19C275.607 208.114 276.913 208.147 276.723 207.472C276.364 206.181 274.488 206.515 273.296 206.594C266.688 207.024 259.373 208.545 252.739 209.427C248.732 209.957 244.628 209.914 240.713 211.127C240.1 209.151 239.067 206.178 238.328 204.209C243.86 196.689 255.53 189.653 263.997 197.044L264.342 197.051C266.806 193.272 272.931 191.066 277.343 190.84C292.257 190.08 301.732 204.618 288.433 214.569C282.319 219.141 273.781 221.275 266.397 218.801C263.972 223.226 260.819 226.292 255.803 227.522C251.326 228.619 247.806 227.619 243.58 226.163L243.576 226.152Z" fill="#DF80B3"/>
<path d="M240.71 211.123C244.624 209.911 248.728 209.958 252.735 209.423C259.369 208.541 266.688 207.024 273.293 206.59C274.487 206.511 276.36 206.181 276.719 207.469C276.909 208.147 275.603 208.111 275.395 208.186C273.978 208.703 273.181 208.95 271.556 209.147C270.498 209.276 269.457 209.165 268.532 209.205C268.435 209.208 267.786 209.545 266.871 209.714C260.27 210.937 253.808 212.583 247.34 214.29C245.639 214.738 243.687 215.767 241.901 215.412C241.578 214.132 241.097 212.371 240.706 211.116L240.71 211.123Z" fill="#6864AD"/>
<path d="M131.635 204.206C130.845 206.487 129.966 208.832 129.249 211.124C126.669 210.604 124.079 210.066 121.464 209.722C120.118 209.546 118.504 209.621 117.198 209.453C110.615 208.606 102.908 206.946 96.4291 206.595C95.7726 206.559 91.9194 206.494 93.4442 207.907C94.1474 208.56 98.7862 209.223 100.049 209.438C106.973 210.615 113.818 212.006 120.714 213.813C123.049 214.427 125.374 215.524 127.817 215.42C127.1 218.267 126.314 223.23 126.146 226.157C122.364 227.566 118.977 228.491 114.916 227.72C109.951 226.777 105.567 223.496 103.687 218.78C96.3251 221.143 88.1094 219.347 81.9099 214.904C71.7317 207.609 73.3175 194.976 85.6123 191.723C92.9204 189.79 100.612 191.343 105.771 197.031C114.471 189.693 125.869 196.647 131.635 204.206Z" fill="#DF80B3"/>
<path d="M129.245 211.123C128.847 212.389 128.086 214.332 127.814 215.419C125.371 215.523 123.046 214.425 120.71 213.812C113.815 212.005 106.973 210.613 100.045 209.437C98.7825 209.222 94.1437 208.559 93.4405 207.906C91.9158 206.493 95.7689 206.558 96.4254 206.593C102.905 206.948 110.611 208.605 117.194 209.452C118.5 209.62 120.115 209.545 121.46 209.721C124.075 210.065 126.666 210.603 129.245 211.123Z" fill="#6864AD"/>
<path d="M243.576 230.926C250.163 229.937 256.84 234.398 257.661 241.182C258.935 241.215 260.072 240.666 261.36 240.691C266.311 240.784 274.33 243.872 278.061 247.157C283.414 251.869 284.572 262.017 277.48 265.65C269.027 269.982 258.045 264.854 251.336 259.371C244.932 264.155 235.049 260.988 231.163 254.544V254.304C233.126 252.579 235.153 250.883 236.753 248.796C237.38 247.978 238.543 246.332 239.042 245.475C247.677 247.038 255.599 250.947 263.556 254.483L265.059 253.701C264.783 252.683 263.703 252.4 263.029 251.919C258.795 248.896 253.385 246.483 248.865 244.313C246.4 243.13 243.731 242.169 241.427 240.705C242.712 237.575 243.372 234.304 243.576 230.923V230.926Z" fill="#DF80B3"/>
<path d="M126.142 230.925C126.357 234.017 127.168 236.986 128.234 239.937C128.345 240.249 128.237 240.855 128.291 240.945C122.54 243.764 116.391 246.249 110.787 249.336C109.782 249.889 108.355 250.638 107.443 251.244C107.128 251.452 105.029 253.026 104.953 253.166C104.817 253.414 104.903 253.776 104.91 254.059C106.055 254.393 106.934 254.102 108.046 253.758C109.937 253.166 111.759 251.933 113.571 251.169C119.211 248.78 124.779 246.898 130.68 245.248C132.722 248.716 135.757 251.929 138.796 254.554C134.652 260.826 125.069 264.312 118.626 259.395C111.809 264.523 102.266 269.511 93.6236 266.184C88.1884 264.089 86.4986 259.087 87.8332 253.6C89.4082 247.109 96.6983 243.308 102.7 241.741C105.814 240.931 108.871 240.378 112.043 241.178C113.18 234.565 119.519 229.921 126.146 230.936L126.142 230.925Z" fill="#DF80B3"/>
<path d="M241.427 240.709C243.731 242.175 246.396 243.133 248.864 244.316C253.385 246.486 258.795 248.896 263.029 251.922C263.703 252.406 264.783 252.686 265.059 253.705L263.556 254.486C255.602 250.954 247.677 247.045 239.042 245.478C239.766 244.23 240.889 242.021 241.427 240.705V240.709Z" fill="#6864AD"/>
<path d="M128.291 240.945C128.958 242.071 129.826 243.796 130.677 245.241C124.775 246.89 119.207 248.777 113.567 251.161C111.759 251.929 109.936 253.162 108.042 253.751C106.93 254.098 106.051 254.385 104.906 254.052C104.899 253.768 104.813 253.41 104.949 253.159C105.025 253.023 107.124 251.448 107.439 251.237C108.351 250.631 109.778 249.885 110.783 249.329C116.387 246.241 122.533 243.756 128.287 240.938L128.291 240.945Z" fill="#6864AD"/>
<path d="M243.576 226.153C243.433 222.717 242.751 218.755 241.905 215.416C241.582 214.136 241.101 212.375 240.71 211.12C240.096 209.144 239.063 206.171 238.324 204.203C237.14 201.054 235.544 197.701 234.026 194.66C232.229 191.06 230.03 187.119 227.583 183.923C226.937 183.081 225.81 181.521 225.197 180.821C223.471 178.863 220.842 176.371 218.754 174.618C213.103 169.877 203.703 164.993 196.316 164.358C148.141 160.227 135.854 196.317 135.452 195.61C134.458 197.644 132.862 200.05 132.589 202.291C132.467 203.281 132.392 204.321 132.112 205.393C132.84 205.429 132.327 224.733 134.02 237.363C135.671 240.863 140.256 247.598 143.334 249.886C143.84 250.262 144.482 250.459 145.185 250.954C147.693 252.733 150.911 254.953 153.674 256.254C157.057 257.85 161.423 258.349 164.914 259.36C165.255 259.457 165.222 259.934 165.319 260.002C165.362 260.031 165.933 259.754 166.331 259.801C167.386 259.927 168.95 260.332 170.155 260.536C189.812 263.871 208.073 261.157 226.915 255.182C228.257 254.755 229.671 253.511 231.167 254.304C233.129 252.579 235.156 250.882 236.756 248.795C237.384 247.978 238.547 246.332 239.045 245.475C239.77 244.227 240.893 242.018 241.431 240.702C242.715 237.571 243.376 234.3 243.58 230.919C243.677 229.345 243.648 227.72 243.58 226.146L243.576 226.153Z" fill="#F3D5E6"/>
<path d="M132.112 205.396C131.53 207.605 130.587 209.639 130.232 211.984C129.066 219.626 130.734 230.388 134.024 237.362C135.674 240.862 140.259 247.597 143.334 249.885C143.84 250.262 144.482 250.459 145.185 250.954C147.693 252.732 150.911 254.952 153.673 256.254C157.057 257.85 161.423 258.348 164.914 259.359C165.254 259.456 165.222 259.933 165.319 260.001C165.362 260.03 165.932 259.754 166.331 259.8C167.385 259.926 168.95 260.331 170.155 260.536C189.812 263.871 208.073 261.156 226.915 255.182C228.257 254.755 229.671 253.51 231.167 254.303V254.543C222.402 262.128 211.198 265.613 199.9 267.428C200.675 268.457 201.769 269.253 202.763 270.049C202.404 270.189 202.017 270.412 201.637 270.469C191.943 271.918 183.501 273.047 173.596 271.409C171.963 271.14 170.141 270.695 168.634 270.046L170.302 267.424C168.831 267.403 162.714 265.972 160.278 265.276C151.844 262.967 145.486 260.313 138.795 254.54C135.757 251.918 132.722 248.702 130.68 245.234C129.83 243.789 128.962 242.064 128.294 240.938C128.241 240.848 128.352 240.242 128.237 239.93C127.172 236.975 126.361 234.009 126.145 230.918C126.045 229.498 126.063 227.576 126.145 226.145C126.314 223.219 127.1 218.259 127.817 215.409C128.09 214.326 128.851 212.382 129.249 211.112C129.966 208.821 130.845 206.476 131.635 204.195C131.857 203.549 132.09 202.775 132.589 202.287C132.467 203.277 132.392 204.317 132.112 205.389V205.396Z" fill="#C4ACD2"/>
<path d="M141.935 208.796C141.436 208.549 140.97 208.229 140.514 207.903C139.736 207.344 138.982 206.756 138.125 206.422C136.442 205.769 133.909 205.483 132.108 205.396C131.531 207.606 130.584 209.639 130.228 211.984C129.063 219.626 130.731 230.388 134.021 237.363C136.109 237.341 137.619 235.72 139.535 235.43C139.452 235.354 139.377 235.272 139.298 235.193C139.298 235.193 139.302 235.193 139.305 235.19L139.535 235.433C140.367 234.687 141.078 233.913 141.687 233.12C148.752 224.973 141.935 208.796 141.935 208.796Z" fill="#E8A8CB"/>
<path d="M217.325 199.307C216.909 195.455 208.216 191.704 204.843 192.332C203.735 192.536 201.65 193.77 201.571 195.032C201.561 195.201 201.977 197.632 202.07 197.858C202.867 199.848 205.618 201.509 207.67 201.806C208.761 201.964 210.107 201.756 211.247 201.81C213.508 201.921 217.734 203.061 217.328 199.31L217.325 199.307ZM215.305 200.4C214.964 200.895 211.99 200.035 211.204 199.938C209.78 199.766 208.255 199.87 206.849 199.518C205.547 199.196 202.418 196.649 203.459 195.24C203.695 194.921 205.339 193.985 205.769 193.946C206.508 193.877 207.911 194.315 208.729 194.419C208.958 194.448 209.21 194.397 209.446 194.419C211.039 195.154 213.375 195.975 214.462 197.399C214.907 197.98 215.746 199.759 215.309 200.397L215.305 200.4Z" fill="#2F2F55"/>
<path d="M208.729 194.423C208.959 194.451 209.21 194.401 209.447 194.423C211.04 195.158 213.375 195.979 214.462 197.403C214.907 197.984 215.747 199.762 215.309 200.401C214.968 200.895 211.994 200.035 211.208 199.938C209.784 199.766 208.259 199.87 206.853 199.518C205.551 199.196 202.422 196.65 203.463 195.24C203.699 194.921 205.343 193.985 205.773 193.946C206.512 193.878 207.915 194.315 208.733 194.419L208.729 194.423Z" fill="#DF80B3"/>
<path d="M196.316 164.361C196.194 164.759 195.401 164.447 195.355 164.727C195.168 165.842 196.234 167.183 196.463 168.105C198.497 176.306 196.887 185.44 192.456 192.591C185.905 203.155 173.423 209.589 160.942 207.473C159.736 207.268 158.262 206.462 157.171 207.068C156.084 206.666 153.537 205.784 153.354 205.755C148.694 204.966 145.095 203.639 141.206 201.197C138.914 199.759 136.811 197.995 135.452 195.614C135.577 195.356 135.563 194.911 135.692 194.66C137.317 191.436 139.972 186.767 142.135 183.923C142.699 183.181 144.098 181.556 144.762 180.821C146.466 178.928 149.253 176.281 151.205 174.617C162.678 164.842 181.754 161.32 196.316 164.358V164.361Z" fill="#E8A8CB"/>
<path d="M163.317 192.336C164.975 192.142 167.705 192.959 168.239 194.706C168.53 195.66 168.035 195.592 167.924 196.223C167.568 198.245 167.766 198.572 166.004 200.031C163.392 202.197 161.534 201.645 158.474 201.806C156.54 201.91 152.766 203.051 152.403 200.003C152.264 198.823 152.913 198.023 153.598 197.17C155.618 194.656 160.142 192.705 163.317 192.332V192.336ZM163.952 199.056C165.082 198.417 167.03 196.861 166.356 195.38C165.233 192.909 160.429 194.362 158.556 195.208C156.418 196.173 154.021 197.987 154.549 200.626C154.732 200.806 158.126 200.017 158.754 199.938C160.623 199.705 162.348 199.959 163.952 199.056Z" fill="#2F2F55"/>
<path d="M163.952 199.056C162.349 199.96 160.626 199.705 158.754 199.939C158.126 200.017 154.728 200.806 154.549 200.627C154.022 197.988 156.418 196.173 158.556 195.209C160.429 194.362 165.233 192.91 166.356 195.381C167.03 196.862 165.079 198.418 163.952 199.056Z" fill="#DF80B3"/>
<circle cx="218.518" cy="223.937" r="17.0018" fill="white"/>
<path d="M235.716 223.829C235.716 233.249 228.078 240.884 218.653 240.884C209.228 240.884 201.59 233.249 201.59 223.829C201.59 214.408 209.228 206.773 218.653 206.773C228.078 206.773 235.716 214.408 235.716 223.829ZM234.306 223.822C234.306 215.176 227.296 208.168 218.646 208.168C209.996 208.168 202.986 215.176 202.986 223.822C202.986 232.468 209.996 239.475 218.646 239.475C227.296 239.475 234.306 232.468 234.306 223.822Z" fill="#2F2F55"/>
<path d="M231.275 224.036C231.275 231.255 225.42 237.107 218.198 237.107C210.976 237.107 205.121 231.255 205.121 224.036C205.121 216.817 210.976 210.965 218.198 210.965C225.42 210.965 231.275 216.817 231.275 224.036Z" fill="#2F2F55"/>
<path d="M224.171 231.326C224.067 231.394 224.16 231.663 223.726 231.714C220.497 232.097 217.477 230.225 217.416 226.779C217.333 222.232 222.442 220.518 225.753 222.978C229 225.391 226.991 229.537 224.171 231.323V231.326Z" fill="white"/>
<path d="M211.022 216.51C211.966 215.613 214.215 214.792 215.474 215.362C218.122 216.553 215.887 223.549 211.808 221.412C209.845 220.383 209.357 218.091 211.022 216.51Z" fill="white"/>
<path d="M168.386 223.836C168.386 214.422 160.752 206.791 151.334 206.791C141.917 206.791 134.282 214.422 134.282 223.836C134.282 233.249 141.917 240.88 151.334 240.88C160.752 240.88 168.386 233.249 168.386 223.836ZM166.984 223.821C166.984 215.179 159.973 208.172 151.327 208.172C142.681 208.172 135.671 215.179 135.671 223.821C135.671 232.464 142.681 239.471 151.327 239.471C159.973 239.471 166.984 232.464 166.984 223.821Z" fill="#2F2F55"/>
<path d="M152.231 206.813C151.435 206.77 150.635 206.785 149.838 206.856C150.323 206.491 151.7 206.48 152.231 206.813Z" fill="#E8A8CB"/>
<path d="M166.984 223.821C166.984 232.464 159.974 239.471 151.327 239.471C142.681 239.471 135.671 232.464 135.671 223.821C135.671 215.179 142.681 208.172 151.327 208.172C159.974 208.172 166.984 215.179 166.984 223.821ZM164.838 224.033C164.838 216.829 158.994 210.987 151.787 210.987C144.579 210.987 138.735 216.829 138.735 224.033C138.735 231.237 144.579 237.079 151.787 237.079C158.994 237.079 164.838 231.237 164.838 224.033Z" fill="white"/>
<path d="M151.37 223.49C151.826 223.971 152.249 224.147 152.411 224.953C153.189 228.801 150.509 232.481 146.384 231.692C144.701 231.369 142.451 227.718 142.437 226.094C142.405 222.124 148.594 220.561 151.367 223.487L151.37 223.49Z" fill="white"/>
<path d="M157.179 215.304C157.243 215.333 157.272 215.627 157.415 215.705C158.958 216.548 160.235 217.326 159.852 219.403C159.579 220.895 156.608 222.501 155.399 221.608C155.288 221.526 153.648 219.604 153.598 219.474C153.175 218.431 153.293 215.946 154.431 215.415C154.929 215.182 156.716 215.107 157.179 215.307V215.304Z" fill="white"/>
<path d="M190.239 240.2L189.999 240.44C189.138 241.372 188.704 243.506 188.295 244.704L181.779 244.747C181.374 243.449 180.638 240.601 179.612 239.726C179.203 239.375 178.443 239.357 178.303 239.855C178.202 240.21 179.62 242.416 179.846 243.072C180.592 245.249 180.793 248.236 180.344 250.477C180.201 251.184 179.2 252.227 180.208 252.74C180.656 252.97 180.811 252.643 181.033 252.356C182.188 250.861 182.088 247.96 181.88 246.167H188.086V249.864C188.086 250.395 188.962 252.79 189.676 252.815C190.921 252.855 189.633 250.319 189.547 249.599C189.138 246.235 190.253 244.374 190.713 241.394C190.731 241.283 191.527 240.834 191.62 240.522C192.051 239.052 190.293 240.182 190.235 240.203L190.239 240.2Z" fill="#2F2F55"/>
<rect width="141.954" height="46.3843" transform="translate(114.023 279.152)" fill="#F6F8D4"/>
<path d="M123.321 305.029L124.972 298.055H125.894L126.105 299.217L124.346 306.344H123.355L123.321 305.029ZM122.473 298.055L123.839 305.029L123.725 306.344H122.621L120.782 298.055H122.473ZM127.556 305L128.906 298.055H130.596L128.763 306.344H127.659L127.556 305ZM126.412 298.055L128.074 305.057L128.029 306.344H127.038L125.268 299.211L125.496 298.055H126.412ZM134.074 306.458C133.596 306.458 133.167 306.382 132.788 306.23C132.408 306.074 132.086 305.86 131.82 305.587C131.558 305.313 131.357 304.997 131.217 304.636C131.076 304.272 131.006 303.885 131.006 303.475V303.247C131.006 302.78 131.073 302.353 131.205 301.966C131.338 301.579 131.528 301.243 131.775 300.959C132.025 300.674 132.329 300.456 132.685 300.304C133.042 300.148 133.444 300.071 133.892 300.071C134.329 300.071 134.716 300.143 135.054 300.287C135.391 300.431 135.674 300.636 135.902 300.902C136.133 301.167 136.308 301.486 136.425 301.858C136.543 302.226 136.602 302.636 136.602 303.088V303.771H131.706V302.678H134.991V302.553C134.991 302.325 134.949 302.122 134.866 301.943C134.786 301.761 134.665 301.617 134.501 301.511C134.338 301.405 134.129 301.351 133.875 301.351C133.659 301.351 133.473 301.399 133.317 301.494C133.162 301.589 133.035 301.721 132.936 301.892C132.841 302.063 132.769 302.264 132.72 302.496C132.674 302.723 132.651 302.974 132.651 303.247V303.475C132.651 303.721 132.685 303.949 132.754 304.158C132.826 304.367 132.926 304.547 133.055 304.699C133.188 304.85 133.348 304.968 133.534 305.052C133.723 305.135 133.938 305.177 134.177 305.177C134.473 305.177 134.748 305.12 135.002 305.006C135.26 304.888 135.482 304.712 135.668 304.477L136.465 305.342C136.336 305.528 136.16 305.706 135.936 305.877C135.716 306.048 135.45 306.188 135.139 306.298C134.828 306.404 134.473 306.458 134.074 306.458ZM139.266 297.6V306.344H137.621V297.6H139.266ZM143.165 305.177C143.367 305.177 143.545 305.139 143.7 305.063C143.856 304.983 143.978 304.873 144.065 304.733C144.156 304.589 144.203 304.42 144.207 304.226H145.75C145.746 304.659 145.63 305.044 145.403 305.382C145.175 305.716 144.869 305.979 144.486 306.173C144.103 306.363 143.674 306.458 143.2 306.458C142.721 306.458 142.304 306.378 141.947 306.219C141.594 306.059 141.3 305.839 141.065 305.558C140.83 305.274 140.653 304.943 140.535 304.568C140.418 304.188 140.359 303.782 140.359 303.349V303.184C140.359 302.748 140.418 302.342 140.535 301.966C140.653 301.587 140.83 301.257 141.065 300.976C141.3 300.691 141.594 300.469 141.947 300.31C142.3 300.15 142.714 300.071 143.188 300.071C143.693 300.071 144.135 300.167 144.515 300.361C144.898 300.554 145.198 300.831 145.414 301.192C145.634 301.549 145.746 301.972 145.75 302.461H144.207C144.203 302.256 144.16 302.071 144.076 301.904C143.997 301.737 143.879 301.604 143.723 301.505C143.571 301.403 143.384 301.351 143.16 301.351C142.921 301.351 142.725 301.403 142.573 301.505C142.422 301.604 142.304 301.74 142.22 301.915C142.137 302.086 142.078 302.281 142.044 302.501C142.014 302.718 141.998 302.945 141.998 303.184V303.349C141.998 303.589 142.014 303.818 142.044 304.038C142.074 304.258 142.131 304.454 142.215 304.625C142.302 304.795 142.422 304.93 142.573 305.029C142.725 305.127 142.923 305.177 143.165 305.177ZM146.439 303.327V303.207C146.439 302.756 146.503 302.34 146.632 301.96C146.761 301.577 146.949 301.245 147.196 300.964C147.442 300.683 147.746 300.465 148.107 300.31C148.467 300.15 148.881 300.071 149.348 300.071C149.814 300.071 150.23 300.15 150.594 300.31C150.959 300.465 151.264 300.683 151.511 300.964C151.761 301.245 151.951 301.577 152.08 301.96C152.209 302.34 152.273 302.756 152.273 303.207V303.327C152.273 303.775 152.209 304.19 152.08 304.573C151.951 304.953 151.761 305.285 151.511 305.57C151.264 305.85 150.96 306.069 150.6 306.224C150.239 306.38 149.826 306.458 149.359 306.458C148.892 306.458 148.477 306.38 148.112 306.224C147.752 306.069 147.446 305.85 147.196 305.57C146.949 305.285 146.761 304.953 146.632 304.573C146.503 304.19 146.439 303.775 146.439 303.327ZM148.078 303.207V303.327C148.078 303.585 148.101 303.826 148.146 304.05C148.192 304.274 148.264 304.471 148.363 304.642C148.465 304.809 148.598 304.94 148.761 305.034C148.924 305.129 149.124 305.177 149.359 305.177C149.587 305.177 149.782 305.129 149.945 305.034C150.108 304.94 150.239 304.809 150.338 304.642C150.437 304.471 150.509 304.274 150.554 304.05C150.604 303.826 150.628 303.585 150.628 303.327V303.207C150.628 302.957 150.604 302.721 150.554 302.501C150.509 302.277 150.435 302.08 150.332 301.909C150.234 301.735 150.103 301.598 149.94 301.499C149.776 301.401 149.579 301.351 149.348 301.351C149.116 301.351 148.919 301.401 148.755 301.499C148.596 301.598 148.465 301.735 148.363 301.909C148.264 302.08 148.192 302.277 148.146 302.501C148.101 302.721 148.078 302.957 148.078 303.207ZM154.921 301.46V306.344H153.275V300.184H154.818L154.921 301.46ZM154.693 303.048H154.237C154.237 302.619 154.289 302.224 154.391 301.864C154.497 301.499 154.651 301.184 154.852 300.919C155.057 300.649 155.31 300.441 155.609 300.293C155.909 300.145 156.256 300.071 156.651 300.071C156.924 300.071 157.175 300.112 157.402 300.196C157.63 300.275 157.826 300.403 157.989 300.577C158.156 300.748 158.285 300.972 158.376 301.249C158.467 301.522 158.513 301.85 158.513 302.234V306.344H156.873V302.416C156.873 302.135 156.835 301.919 156.759 301.767C156.683 301.615 156.575 301.509 156.435 301.448C156.298 301.387 156.133 301.357 155.939 301.357C155.727 301.357 155.541 301.401 155.382 301.488C155.226 301.575 155.097 301.697 154.995 301.852C154.892 302.004 154.816 302.182 154.767 302.387C154.717 302.592 154.693 302.812 154.693 303.048ZM158.359 302.86L157.772 302.934C157.772 302.532 157.822 302.158 157.921 301.812C158.023 301.467 158.173 301.164 158.37 300.902C158.571 300.64 158.82 300.437 159.116 300.293C159.412 300.145 159.754 300.071 160.141 300.071C160.437 300.071 160.706 300.114 160.949 300.201C161.192 300.285 161.399 300.42 161.569 300.606C161.744 300.788 161.877 301.027 161.968 301.323C162.063 301.619 162.11 301.981 162.11 302.41V306.344H160.465V302.41C160.465 302.126 160.427 301.909 160.351 301.761C160.279 301.609 160.173 301.505 160.032 301.448C159.896 301.387 159.733 301.357 159.543 301.357C159.346 301.357 159.173 301.397 159.025 301.477C158.877 301.553 158.754 301.659 158.655 301.795C158.556 301.932 158.482 302.091 158.433 302.274C158.384 302.452 158.359 302.647 158.359 302.86ZM166.215 306.458C165.736 306.458 165.308 306.382 164.928 306.23C164.549 306.074 164.226 305.86 163.96 305.587C163.698 305.313 163.497 304.997 163.357 304.636C163.216 304.272 163.146 303.885 163.146 303.475V303.247C163.146 302.78 163.213 302.353 163.346 301.966C163.478 301.579 163.668 301.243 163.915 300.959C164.165 300.674 164.469 300.456 164.826 300.304C165.182 300.148 165.585 300.071 166.032 300.071C166.469 300.071 166.856 300.143 167.194 300.287C167.531 300.431 167.814 300.636 168.042 300.902C168.273 301.167 168.448 301.486 168.566 301.858C168.683 302.226 168.742 302.636 168.742 303.088V303.771H163.846V302.678H167.131V302.553C167.131 302.325 167.089 302.122 167.006 301.943C166.926 301.761 166.805 301.617 166.642 301.511C166.478 301.405 166.27 301.351 166.015 301.351C165.799 301.351 165.613 301.399 165.457 301.494C165.302 301.589 165.175 301.721 165.076 301.892C164.981 302.063 164.909 302.264 164.86 302.496C164.814 302.723 164.791 302.974 164.791 303.247V303.475C164.791 303.721 164.826 303.949 164.894 304.158C164.966 304.367 165.067 304.547 165.196 304.699C165.328 304.85 165.488 304.968 165.674 305.052C165.864 305.135 166.078 305.177 166.317 305.177C166.613 305.177 166.888 305.12 167.142 305.006C167.401 304.888 167.623 304.712 167.808 304.477L168.605 305.342C168.476 305.528 168.3 305.706 168.076 305.877C167.856 306.048 167.59 306.188 167.279 306.298C166.968 306.404 166.613 306.458 166.215 306.458ZM175.596 300.184V301.346H172.01V300.184H175.596ZM172.898 298.664H174.537V304.488C174.537 304.666 174.56 304.803 174.605 304.898C174.655 304.993 174.727 305.059 174.822 305.097C174.917 305.131 175.036 305.148 175.18 305.148C175.283 305.148 175.374 305.145 175.454 305.137C175.537 305.126 175.607 305.114 175.664 305.103L175.67 306.31C175.529 306.355 175.378 306.391 175.214 306.418C175.051 306.444 174.871 306.458 174.674 306.458C174.313 306.458 173.998 306.399 173.729 306.281C173.463 306.16 173.258 305.966 173.114 305.7C172.97 305.435 172.898 305.086 172.898 304.653V298.664ZM176.12 303.327V303.207C176.12 302.756 176.184 302.34 176.313 301.96C176.442 301.577 176.63 301.245 176.877 300.964C177.123 300.683 177.427 300.465 177.788 300.31C178.148 300.15 178.562 300.071 179.029 300.071C179.495 300.071 179.911 300.15 180.275 300.31C180.639 300.465 180.945 300.683 181.192 300.964C181.442 301.245 181.632 301.577 181.761 301.96C181.89 302.34 181.954 302.756 181.954 303.207V303.327C181.954 303.775 181.89 304.19 181.761 304.573C181.632 304.953 181.442 305.285 181.192 305.57C180.945 305.85 180.641 306.069 180.281 306.224C179.92 306.38 179.507 306.458 179.04 306.458C178.573 306.458 178.158 306.38 177.793 306.224C177.433 306.069 177.127 305.85 176.877 305.57C176.63 305.285 176.442 304.953 176.313 304.573C176.184 304.19 176.12 303.775 176.12 303.327ZM177.759 303.207V303.327C177.759 303.585 177.782 303.826 177.827 304.05C177.873 304.274 177.945 304.471 178.044 304.642C178.146 304.809 178.279 304.94 178.442 305.034C178.605 305.129 178.805 305.177 179.04 305.177C179.268 305.177 179.463 305.129 179.626 305.034C179.789 304.94 179.92 304.809 180.019 304.642C180.118 304.471 180.19 304.274 180.235 304.05C180.285 303.826 180.309 303.585 180.309 303.327V303.207C180.309 302.957 180.285 302.721 180.235 302.501C180.19 302.277 180.116 302.08 180.013 301.909C179.915 301.735 179.784 301.598 179.621 301.499C179.457 301.401 179.26 301.351 179.029 301.351C178.797 301.351 178.6 301.401 178.436 301.499C178.277 301.598 178.146 301.735 178.044 301.909C177.945 302.08 177.873 302.277 177.827 302.501C177.782 302.721 177.759 302.957 177.759 303.207ZM190.545 298.055H192.247V303.532C192.247 304.169 192.11 304.706 191.837 305.143C191.567 305.579 191.193 305.907 190.715 306.127C190.241 306.348 189.694 306.458 189.076 306.458C188.457 306.458 187.907 306.348 187.425 306.127C186.947 305.907 186.571 305.579 186.298 305.143C186.028 304.706 185.894 304.169 185.894 303.532V298.055H187.601V303.532C187.601 303.904 187.66 304.207 187.778 304.442C187.896 304.678 188.064 304.85 188.285 304.96C188.509 305.071 188.772 305.126 189.076 305.126C189.387 305.126 189.651 305.071 189.867 304.96C190.087 304.85 190.254 304.678 190.368 304.442C190.486 304.207 190.545 303.904 190.545 303.532V298.055ZM193.288 303.327V303.207C193.288 302.756 193.353 302.34 193.482 301.96C193.611 301.577 193.799 301.245 194.045 300.964C194.292 300.683 194.596 300.465 194.956 300.31C195.317 300.15 195.73 300.071 196.197 300.071C196.664 300.071 197.08 300.15 197.444 300.31C197.808 300.465 198.114 300.683 198.36 300.964C198.611 301.245 198.801 301.577 198.93 301.96C199.059 302.34 199.123 302.756 199.123 303.207V303.327C199.123 303.775 199.059 304.19 198.93 304.573C198.801 304.953 198.611 305.285 198.36 305.57C198.114 305.85 197.81 306.069 197.45 306.224C197.089 306.38 196.675 306.458 196.209 306.458C195.742 306.458 195.326 306.38 194.962 306.224C194.601 306.069 194.296 305.85 194.045 305.57C193.799 305.285 193.611 304.953 193.482 304.573C193.353 304.19 193.288 303.775 193.288 303.327ZM194.928 303.207V303.327C194.928 303.585 194.951 303.826 194.996 304.05C195.042 304.274 195.114 304.471 195.212 304.642C195.315 304.809 195.448 304.94 195.611 305.034C195.774 305.129 195.973 305.177 196.209 305.177C196.436 305.177 196.632 305.129 196.795 305.034C196.958 304.94 197.089 304.809 197.188 304.642C197.286 304.471 197.359 304.274 197.404 304.05C197.453 303.826 197.478 303.585 197.478 303.327V303.207C197.478 302.957 197.453 302.721 197.404 302.501C197.359 302.277 197.285 302.08 197.182 301.909C197.083 301.735 196.952 301.598 196.789 301.499C196.626 301.401 196.429 301.351 196.197 301.351C195.966 301.351 195.768 301.401 195.605 301.499C195.446 301.598 195.315 301.735 195.212 301.909C195.114 302.08 195.042 302.277 194.996 302.501C194.951 302.721 194.928 302.957 194.928 303.207ZM202.22 306.344H200.569V299.638C200.569 299.171 200.66 298.778 200.842 298.46C201.028 298.137 201.288 297.894 201.622 297.731C201.96 297.564 202.36 297.48 202.823 297.48C202.975 297.48 203.121 297.492 203.262 297.515C203.402 297.534 203.539 297.558 203.672 297.589L203.655 298.824C203.582 298.805 203.507 298.792 203.427 298.784C203.347 298.776 203.254 298.773 203.148 298.773C202.951 298.773 202.782 298.807 202.641 298.875C202.505 298.94 202.4 299.036 202.328 299.165C202.256 299.294 202.22 299.452 202.22 299.638V306.344ZM203.45 300.184V301.346H199.653V300.184H203.45ZM208.117 298.055V306.344H206.415V298.055H208.117ZM210.668 298.055V299.393H203.905V298.055H210.668ZM219.764 301.431V302.763H215.438V301.431H219.764ZM215.945 298.055V306.344H214.237V298.055H215.945ZM220.983 298.055V306.344H219.281V298.055H220.983ZM225.69 304.955V302.211C225.69 302.014 225.658 301.845 225.594 301.704C225.529 301.56 225.429 301.448 225.292 301.368C225.159 301.289 224.986 301.249 224.774 301.249C224.592 301.249 224.434 301.281 224.301 301.346C224.169 301.406 224.066 301.496 223.994 301.613C223.922 301.727 223.886 301.862 223.886 302.017H222.246C222.246 301.756 222.307 301.507 222.429 301.272C222.55 301.036 222.726 300.83 222.958 300.651C223.189 300.469 223.465 300.327 223.783 300.224C224.106 300.122 224.466 300.071 224.865 300.071C225.343 300.071 225.768 300.15 226.14 300.31C226.512 300.469 226.804 300.708 227.017 301.027C227.233 301.346 227.341 301.744 227.341 302.222V304.858C227.341 305.196 227.362 305.473 227.404 305.689C227.446 305.902 227.506 306.088 227.586 306.247V306.344H225.929C225.85 306.177 225.789 305.968 225.747 305.718C225.709 305.463 225.69 305.209 225.69 304.955ZM225.907 302.592L225.918 303.52H225.002C224.785 303.52 224.597 303.545 224.438 303.594C224.279 303.644 224.148 303.714 224.045 303.805C223.943 303.892 223.867 303.995 223.818 304.112C223.772 304.23 223.749 304.359 223.749 304.499C223.749 304.64 223.781 304.767 223.846 304.881C223.911 304.991 224.004 305.078 224.125 305.143C224.246 305.203 224.389 305.234 224.552 305.234C224.799 305.234 225.013 305.184 225.195 305.086C225.377 304.987 225.518 304.866 225.616 304.721C225.719 304.577 225.772 304.441 225.776 304.312L226.208 305.006C226.148 305.162 226.064 305.323 225.958 305.49C225.855 305.657 225.725 305.814 225.565 305.962C225.406 306.107 225.214 306.226 224.99 306.321C224.766 306.412 224.501 306.458 224.193 306.458C223.802 306.458 223.448 306.38 223.129 306.224C222.814 306.065 222.563 305.847 222.377 305.57C222.195 305.289 222.104 304.97 222.104 304.613C222.104 304.291 222.165 304.004 222.286 303.754C222.408 303.503 222.586 303.293 222.821 303.122C223.06 302.947 223.358 302.816 223.715 302.729C224.072 302.638 224.485 302.592 224.956 302.592H225.907ZM231.15 305.177C231.351 305.177 231.529 305.139 231.685 305.063C231.84 304.983 231.962 304.873 232.049 304.733C232.14 304.589 232.187 304.42 232.191 304.226H233.734C233.73 304.659 233.614 305.044 233.387 305.382C233.159 305.716 232.854 305.979 232.47 306.173C232.087 306.363 231.658 306.458 231.184 306.458C230.706 306.458 230.288 306.378 229.931 306.219C229.578 306.059 229.284 305.839 229.049 305.558C228.814 305.274 228.637 304.943 228.52 304.568C228.402 304.188 228.343 303.782 228.343 303.349V303.184C228.343 302.748 228.402 302.342 228.52 301.966C228.637 301.587 228.814 301.257 229.049 300.976C229.284 300.691 229.578 300.469 229.931 300.31C230.284 300.15 230.698 300.071 231.172 300.071C231.677 300.071 232.119 300.167 232.499 300.361C232.882 300.554 233.182 300.831 233.398 301.192C233.618 301.549 233.73 301.972 233.734 302.461H232.191C232.187 302.256 232.144 302.071 232.06 301.904C231.981 301.737 231.863 301.604 231.707 301.505C231.556 301.403 231.368 301.351 231.144 301.351C230.905 301.351 230.709 301.403 230.558 301.505C230.406 301.604 230.288 301.74 230.205 301.915C230.121 302.086 230.062 302.281 230.028 302.501C229.998 302.718 229.983 302.945 229.983 303.184V303.349C229.983 303.589 229.998 303.818 230.028 304.038C230.058 304.258 230.115 304.454 230.199 304.625C230.286 304.795 230.406 304.93 230.558 305.029C230.709 305.127 230.907 305.177 231.15 305.177ZM236.324 297.594V306.344H234.685V297.594H236.324ZM240.206 300.184L237.531 303.236L236.096 304.687L235.499 303.503L236.637 302.057L238.237 300.184H240.206ZM238.504 306.344L236.683 303.497L237.816 302.507L240.394 306.344H238.504ZM244.242 304.642C244.242 304.524 244.208 304.418 244.14 304.323C244.072 304.228 243.945 304.141 243.759 304.061C243.576 303.978 243.313 303.902 242.967 303.833C242.656 303.765 242.366 303.68 242.096 303.577C241.831 303.471 241.599 303.344 241.402 303.196C241.208 303.048 241.057 302.873 240.946 302.672C240.836 302.467 240.781 302.234 240.781 301.972C240.781 301.714 240.836 301.471 240.946 301.243C241.06 301.016 241.222 300.814 241.43 300.64C241.643 300.461 241.901 300.323 242.205 300.224C242.512 300.122 242.857 300.071 243.241 300.071C243.776 300.071 244.235 300.156 244.618 300.327C245.005 300.497 245.301 300.733 245.506 301.033C245.715 301.329 245.819 301.666 245.819 302.046H244.18C244.18 301.886 244.146 301.744 244.077 301.619C244.013 301.49 243.91 301.389 243.77 301.317C243.633 301.241 243.455 301.203 243.235 301.203C243.053 301.203 242.895 301.236 242.762 301.3C242.63 301.361 242.527 301.444 242.455 301.551C242.387 301.653 242.353 301.767 242.353 301.892C242.353 301.987 242.371 302.072 242.409 302.148C242.451 302.22 242.518 302.287 242.609 302.348C242.7 302.408 242.817 302.465 242.962 302.518C243.11 302.568 243.292 302.613 243.508 302.655C243.952 302.746 244.349 302.866 244.698 303.014C245.047 303.158 245.324 303.355 245.529 303.606C245.734 303.852 245.836 304.177 245.836 304.579C245.836 304.852 245.776 305.103 245.654 305.33C245.533 305.558 245.358 305.757 245.13 305.928C244.903 306.095 244.63 306.226 244.311 306.321C243.996 306.412 243.641 306.458 243.246 306.458C242.673 306.458 242.187 306.355 241.789 306.15C241.394 305.945 241.094 305.685 240.89 305.37C240.688 305.052 240.588 304.725 240.588 304.391H242.142C242.149 304.615 242.206 304.795 242.313 304.932C242.423 305.069 242.561 305.167 242.728 305.228C242.899 305.289 243.083 305.319 243.28 305.319C243.493 305.319 243.669 305.291 243.81 305.234C243.95 305.173 244.056 305.093 244.129 304.995C244.204 304.892 244.242 304.775 244.242 304.642ZM248.751 298.055L248.563 303.811H247.197L247.003 298.055H248.751ZM246.958 305.592C246.958 305.349 247.041 305.148 247.208 304.989C247.379 304.826 247.603 304.744 247.88 304.744C248.161 304.744 248.385 304.826 248.552 304.989C248.719 305.148 248.802 305.349 248.802 305.592C248.802 305.828 248.719 306.027 248.552 306.19C248.385 306.353 248.161 306.435 247.88 306.435C247.603 306.435 247.379 306.353 247.208 306.19C247.041 306.027 246.958 305.828 246.958 305.592Z" fill="#7C5817"/>
</svg>
