<svg width="520" height="607" viewBox="0 0 520 607" fill="none" xmlns="http://www.w3.org/2000/svg">
<path d="M103.086 538.84C103.666 537.41 103.186 535.45 103.446 534.81C110.246 518.36 116.466 501.92 122.476 485.2C123.666 481.88 123.976 476.97 126.726 474.6C124.376 488.71 120.086 502.46 118.716 516.75C117.616 528.24 117.736 535 121.116 546.05C114.046 550.83 106.276 554.35 97.4864 553.21C95.6364 552.97 94.6564 551.87 93.8164 551.67C97.7864 550.28 101.516 542.69 103.086 538.84Z" fill="#AB97C6"/>
<path d="M150.586 406.81C150.436 407.21 150.256 407.6 150.016 407.96C150.066 407.98 150.116 407.99 150.176 408L126.726 474.6C123.976 476.97 123.676 481.88 122.476 485.2C116.466 501.92 110.256 518.36 103.446 534.81C100.276 533.22 99.9665 529.98 100.226 526.78C86.8365 527.94 86.1265 514.08 91.0965 504.39C91.6665 503.27 95.2565 499.3 94.6165 498.68C85.5465 499.92 70.2965 501.24 62.5565 495.82C59.4765 493.66 54.4865 488.2 56.4765 484.22C57.2465 482.68 60.5365 482.55 60.0965 480.23C53.2365 478.87 46.7165 470.95 45.6465 464.16C79.7765 456.58 107.706 441.4 134.676 419.52C140.846 414.52 146.776 409.15 151.616 403.14C151.386 403.7 151.236 404.31 151.096 404.94C150.956 405.57 150.806 406.2 150.586 406.81Z" fill="#CDB2D5"/>
<path d="M9.92617 472.189C16.4562 467.499 36.7362 466.139 45.6462 464.159C46.7162 470.949 53.2362 478.869 60.0962 480.229C60.5362 482.559 57.2562 482.679 56.4762 484.219C54.4762 488.209 59.4762 493.669 62.5562 495.819C70.2962 501.239 85.5362 499.929 94.6162 498.679C95.2662 499.299 91.6762 503.269 91.0962 504.389C86.1262 514.079 86.8362 527.939 100.226 526.779C99.9562 529.979 100.276 533.209 103.446 534.809C103.186 535.449 103.666 537.409 103.086 538.839C101.516 542.689 97.7862 550.279 93.8162 551.669C88.6462 550.419 86.6862 550.389 82.1962 546.829C70.9262 537.889 71.9262 525.349 78.9762 513.949C55.0462 520.909 22.9062 527.609 5.09618 505.109C-3.32382 494.469 -1.03383 480.069 9.92617 472.189Z" fill="#6464AD"/>
<path d="M287.406 490.431C287.457 490.357 287.495 490.302 287.495 490.302C295.884 491.187 300.761 498.755 311.528 492.977C311.833 492.819 313.088 493.653 313.189 492.798L311.978 489.799C312.1 489.574 311.961 489.201 312.09 489.007C313.767 486.366 314.124 486.194 316.056 483.892C316.869 482.927 317.064 481.763 317.186 481.618C317.245 481.556 318.34 481.953 318.868 481.291C320.735 478.949 322.348 475.259 320.923 472.411C321.041 471.933 321.141 471.301 321.149 470.817C321.216 467.777 319.404 468.52 319.101 468.093C318.966 467.902 318.624 464.895 317.966 463.62C316.353 460.533 314.844 459.279 313.137 456.786C312.753 456.216 312.267 455.511 312.846 455.058C313.459 454.579 325.27 453.12 328.133 452.233C332.613 450.837 345.901 444.941 345.038 439.052C344.815 437.556 341.151 436.401 341.771 434.519C341.876 434.201 345.058 431.49 345.86 430.463C349.176 426.226 351.009 423.051 349.813 417.307C360.149 413.71 380.451 399.859 389.407 399.592C406.822 399.068 407.14 416.515 403.067 429.088C393.055 460 366.83 471.598 335.915 469.676C344.418 482.454 344.71 501.149 328.202 507.104C318.038 510.766 310.678 507.037 301.141 503.707C300.111 507.844 297.423 510.21 294.59 512.738C294.59 512.738 287.511 490.405 287.408 490.421L287.406 490.431Z" fill="#6464AD"/>
<path d="M261.415 399.157C261.415 399.157 265.866 441.479 272.95 449.44C274.015 450.338 275.176 452.836 275.67 454.128C279.651 464.599 283.952 479.378 287.411 490.402C296.565 492.799 302.08 498.003 311.365 492.985C311.671 492.826 312.926 493.661 313.027 492.806L311.815 489.807C311.938 489.582 311.799 489.209 311.928 489.015C313.604 486.374 313.962 486.202 315.894 483.9C316.707 482.935 316.902 481.77 317.024 481.626C317.083 481.564 318.178 481.961 318.706 481.299C320.573 478.957 322.186 475.267 320.761 472.419C320.879 471.941 320.979 471.309 320.987 470.825C321.054 467.784 319.242 468.528 318.938 468.101C318.804 467.91 318.462 464.903 317.804 463.628C316.191 460.541 314.682 459.287 312.975 456.793C312.591 456.224 312.105 455.519 312.684 455.066C313.297 454.587 325.108 453.128 327.971 452.24C332.451 450.845 345.738 444.949 344.875 439.06C344.653 437.564 340.989 436.409 341.608 434.527C341.714 434.209 344.896 431.498 345.698 430.47C349.014 426.233 350.847 423.059 349.651 417.315C322.33 426.809 278.825 426.346 261.406 399.146L261.415 399.157Z" fill="#CDB2D5"/>
<path d="M272.963 453.341C274.535 467.915 276.954 483.074 278.024 498.062C278.076 498.049 278.13 498.026 278.192 498.015C278.71 505.34 278.912 512.62 278.525 519.777C284.71 520.39 293.54 516.236 294.148 513.151C294.322 512.994 294.494 512.847 294.668 512.689L287.409 490.412C283.95 479.388 280.233 464.48 276.252 454.008C275.759 452.707 272.196 447.486 271.13 446.597C270.731 447.915 272.806 452.026 272.951 453.349L272.963 453.341Z" fill="#AB97C6"/>
<path d="M154.996 443.22C155.576 440.37 169.866 423.04 172.776 420.39C180.096 413.73 184.816 415.52 193.656 414.37C197.136 413.92 201.126 412.59 204.436 412.33C209.346 411.93 226.766 414.43 232.116 415.49C236.646 416.38 240.066 419.78 243.166 422.9C245.536 425.29 257.176 439.61 257.966 441.82C258.836 444.28 258.146 446.72 259.026 449.59C261.646 458.14 273.756 470.91 275.076 479.31C275.926 484.68 273.396 490.37 272.826 495.14C271.166 509.08 273.766 512.5 263.996 524.85C258.526 531.76 251.046 534.14 246.776 539.75C245.876 540.94 245.966 542.48 245.256 543.47C241.956 548.08 234.126 547.93 229.466 549.74C227.876 550.36 227.046 551.77 225.686 552.38C221.276 554.37 194.556 554.28 189.286 553.03C186.736 552.42 185.766 550.52 183.746 549.74C179.036 547.92 171.946 548.05 168.576 543.22C161.856 533.59 159.586 535.88 152.686 529.02C141.386 517.8 141.776 508.76 140.356 494.38C140.026 490.98 138.376 487.02 138.256 483.81C137.896 473.65 148.836 461.71 153.116 452.53C155.386 447.67 154.246 446.84 154.976 443.23L154.996 443.22Z" fill="#FFFDF4"/>
<path d="M127.526 470.68H127.006L127.556 469.11C127.596 469.51 127.596 470.03 127.526 470.68Z" fill="#AB97C6"/>
<path d="M127.565 469.11L127.015 470.68H126.745C126.425 467.99 127.385 467.47 127.565 469.11Z" fill="#AB97C6"/>
<path d="M121.116 542.94C121.746 545 121.976 547.74 123.136 549.35C123.636 550.05 131.946 557.96 133.166 558.99C136.766 562.05 142.776 562.92 142.806 567.82C145.076 567.35 146.376 565.79 148.896 565.47C152.266 565.05 173.746 586.54 189.366 587.89C200.716 589.59 212.496 589.23 223.886 587.89C223.916 586.35 258.686 575.98 270.026 567.82C271.656 567.14 270.966 564.17 271.306 563.85C271.606 563.58 273.246 564.01 274.246 563.58C274.576 563.44 279.796 560 280.086 559.78C280.926 559.13 290.786 548.67 291.116 547.93C295.126 539.06 296.176 524.44 295.336 514.82C293.446 493.03 286.016 470.82 280.646 449.63C280.316 448.35 261.616 397.61 261.616 397.61L263.216 404.83C262.346 404.79 261.466 404.78 260.576 404.8C258.806 404.83 257.026 404.96 255.236 405.14C254.346 405.23 253.446 405.33 252.556 405.43C250.766 405.64 248.986 405.86 247.216 406.05C245.446 406.24 243.696 406.4 241.966 406.47C234.936 406.76 227.906 406.87 220.876 406.88C216.186 406.89 211.506 406.86 206.826 406.82C202.146 406.78 197.466 406.73 192.786 406.69C190.446 406.67 188.106 406.66 185.766 406.66C185.146 406.66 184.536 406.71 183.926 406.78C183.316 406.85 182.706 406.95 182.096 407.06C181.486 407.16 180.886 407.27 180.286 407.37C177.296 407.83 174.396 407.88 171.686 404.83V407.25L170.076 406.44L168.476 405.63C168.336 406.98 168.096 407.49 167.836 407.55C167.466 407.64 167.046 406.84 166.756 406.25C166.626 406 166.526 405.78 166.456 405.68C166.436 405.65 166.416 405.63 166.396 405.63C166.206 405.6 165.986 405.57 165.756 405.54C165.276 405.48 164.726 405.4 164.136 405.33C163.546 405.26 162.926 405.18 162.326 405.11C161.726 405.04 161.146 404.97 160.646 404.92C160.396 404.89 160.156 404.87 159.956 404.85C159.596 404.82 159.216 404.81 158.836 404.82C158.646 404.82 158.446 404.83 158.246 404.84C158.046 404.85 157.846 404.87 157.646 404.89C157.246 404.93 156.826 404.97 156.416 405.02C155.786 405.09 155.156 405.16 154.506 405.21C154.076 405.24 153.646 405.27 153.216 405.27C152.566 405.27 151.926 405.24 151.286 405.14C150.916 405.08 150.546 404.99 150.176 404.88L127.566 469.1C127.606 469.5 127.606 470.02 127.536 470.67H127.016L126.736 471.48C124.386 485.59 120.096 499.34 118.726 513.63C117.626 525.12 117.746 531.88 121.126 542.93L121.116 542.94ZM153.126 452.52C155.396 447.66 154.256 446.83 154.986 443.22C155.566 440.37 169.856 423.04 172.766 420.39C180.086 413.73 184.806 415.52 193.646 414.37C197.126 413.92 201.116 412.59 204.426 412.33C209.336 411.93 226.756 414.43 232.106 415.49C236.636 416.38 240.056 419.78 243.156 422.9C245.526 425.29 257.166 439.61 257.956 441.82C258.826 444.28 258.136 446.72 259.016 449.59C261.636 458.14 273.746 470.91 275.066 479.31C275.916 484.68 273.386 490.37 272.816 495.14C271.156 509.08 273.756 512.5 263.986 524.85C258.516 531.76 251.036 534.14 246.766 539.75C245.866 540.94 245.956 542.48 245.246 543.47C241.946 548.08 234.116 547.93 229.456 549.74C227.866 550.36 227.036 551.77 225.676 552.38C221.266 554.37 194.546 554.28 189.276 553.03C186.726 552.42 185.756 550.52 183.736 549.74C179.026 547.92 171.936 548.05 168.566 543.22C161.846 533.59 159.576 535.88 152.676 529.02C141.376 517.8 141.766 508.76 140.346 494.38C140.016 490.98 138.366 487.02 138.246 483.81C137.886 473.65 148.826 461.71 153.106 452.53L153.126 452.52Z" fill="#CDB2D5"/>
<path d="M142.785 369.53C143.165 369.6 143.495 369.95 143.585 370.33C143.235 370.24 142.935 369.86 142.785 369.53Z" fill="#CDB2D5"/>
<path d="M150.586 403.7L150.166 404.89C150.116 404.87 150.066 404.86 150.006 404.85C150.246 404.49 150.436 404.1 150.576 403.7H150.586Z" fill="#AB97C6"/>
<path d="M260.566 404.821C258.796 404.851 257.016 404.981 255.226 405.161C254.336 405.251 253.436 405.351 252.546 405.451C250.756 405.661 248.976 405.881 247.206 406.071C245.436 406.261 243.686 406.421 241.956 406.491C234.926 406.781 227.896 406.891 220.866 406.901C216.176 406.911 211.496 406.881 206.816 406.841C202.136 406.801 197.456 406.751 192.776 406.711C190.436 406.691 188.096 406.681 185.756 406.681C185.136 406.681 184.526 406.731 183.916 406.801C183.306 406.871 182.696 406.971 182.086 407.081C181.476 407.181 180.876 407.291 180.276 407.391C177.286 407.851 174.386 407.901 171.676 404.851V407.271L170.066 406.461L168.466 405.651C168.326 407.001 168.086 407.511 167.826 407.571C167.456 407.661 167.036 406.861 166.746 406.271C166.616 406.021 166.516 405.801 166.446 405.701C166.426 405.671 166.406 405.651 166.386 405.651C166.196 405.621 165.976 405.591 165.746 405.561C165.266 405.501 164.716 405.421 164.126 405.351C163.536 405.281 162.916 405.201 162.316 405.131C161.716 405.061 161.136 404.991 160.636 404.941C160.386 404.911 160.146 404.891 159.946 404.871C159.586 404.841 159.206 404.831 158.826 404.841C158.636 404.841 158.436 404.851 158.236 404.861C158.036 404.871 157.836 404.891 157.636 404.911C157.236 404.951 156.816 404.991 156.406 405.041C155.776 405.111 155.146 405.181 154.496 405.231C154.066 405.261 153.636 405.291 153.206 405.291C152.556 405.291 151.916 405.261 151.276 405.161C150.906 405.101 150.536 405.011 150.166 404.901L150.586 403.711C150.806 403.111 150.946 402.471 151.096 401.841C151.236 401.211 151.386 400.601 151.616 400.041C152.336 398.311 157.486 389.781 156.436 388.801C184.276 395.291 256.796 388.801 256.796 388.801C256.096 389.391 260.856 396.761 261.606 397.631L263.206 404.851C262.336 404.811 261.456 404.801 260.566 404.821Z" fill="#AB97C6"/>
<path d="M171.686 407.27L170.086 406.46L171.686 407.27Z" fill="#AB97C6"/>
<path d="M279.206 557.729C278.926 557.949 273.696 561.379 273.366 561.529C272.366 561.959 270.726 561.529 270.426 561.799C270.076 562.109 270.776 565.089 269.146 565.769C264.966 563.089 259.566 562.759 254.696 563.339C249.156 563.999 248.346 569.129 246.556 569.709C245.006 570.209 238.086 566.789 234.246 568.589C233.386 568.989 232.806 570.4 231.776 570.93C230.496 571.59 227.846 571.6 227.196 572.38C226.976 572.64 224.326 578.119 224.176 578.579C223.706 579.969 223.036 584.299 223.006 585.839C222.976 587.599 223.396 589.94 223.886 591.63C224.056 592.22 225.126 592.21 225.356 592.87C227.236 598.37 225.036 599.77 231.816 603.12C242.386 608.36 244.376 601.78 244.696 592.26L247.196 601.389C252.786 609.779 260.976 605.869 264.596 598.109C265.176 596.869 265.996 590.909 267.196 595.039C268.526 599.629 268.516 601.93 274.736 601.06C275.386 600.97 281.936 598.76 282.236 598.5C282.926 597.94 285.366 585.599 285.536 583.729C286.186 576.359 285.536 562.41 279.216 557.74L279.206 557.729Z" fill="#F48E9E"/>
<path d="M138.126 556.97C135.746 559.56 134.566 562.4 133.706 565.79C131.266 575.36 131.836 586.18 134.296 595.72C135.406 600.02 147.626 603.65 149.746 598.7C150.566 596.79 149.436 593.91 151.756 593.1C152.576 602.62 163.486 611.79 170.386 601.69L173.436 590.7C173.116 600.6 174.606 609.28 186.196 603.05C187.466 602.37 189.526 601.09 190.326 599.95C192.256 597.22 194.256 589.24 194.316 585.88C194.436 579.38 194.236 580.54 191.216 575.73C190.556 574.67 190.456 572.85 189.916 572.22C188.886 571.03 186.896 571.74 185.486 571C184.896 570.69 184.836 569.26 183.696 568.76C182.316 568.15 176.556 568.29 174.786 568.49C173.876 568.59 173.096 570.13 171.576 569.77C170.266 569.46 169.166 566.56 167.786 565.45C165.206 563.37 157.216 563.05 153.846 563.47C151.326 563.78 150.026 565.35 147.756 565.82C147.726 560.92 141.716 560.05 138.116 556.99L138.126 556.97Z" fill="#F48E9E"/>
<path d="M348.756 158.4C332.326 157.49 315.736 156.1 299.376 157.6C291.806 158.3 283.436 159.36 276.046 161.17C250.136 167.5 233.626 188.7 211.316 200.8C200.216 206.82 193.966 205.5 183.516 199.2C171.206 191.79 159.316 180.89 147.216 172.88C131.156 162.24 116.986 159.28 97.866 157.6C81.526 156.16 64.926 157.52 48.526 158.44C43.286 158.73 32.856 158.89 28.026 157.6C16.056 154.41 6.37597 137.88 6.42597 125.96C6.47597 113.37 16.216 104.97 25.586 98.3999C22.736 72.6199 26.186 46.9699 35.896 22.9799C37.666 18.5999 43.186 6.43994 46.066 3.44994C51.716 -2.39006 60.146 0.819945 66.166 4.23994C83.896 14.3299 94.186 47.4099 102.516 65.0699C103.006 66.0999 104.206 66.7299 104.276 66.8899C113.926 87.3599 121.406 107.38 135.626 125.66C148.186 141.8 167.766 166.47 185.976 175.21C187.536 175.96 198.036 179.3 199.336 179.24C204.836 178.99 219.206 170.63 224.086 167.21C236.826 158.27 261.286 128.02 270.306 114.5C279.836 100.21 286.476 82.31 293.736 66.88C301.136 51.15 310.016 26.6999 320.616 13.8799C327.206 5.90994 344.546 -7.07006 353.006 4.75994C356.346 9.43994 361.446 22.1399 363.596 27.9299C370.596 46.7599 374.436 69.5399 373.156 89.63C373.056 91.24 371.256 98.67 371.606 98.99C371.726 99.1 373.006 98.7599 373.716 99.2499C381.206 104.41 389.566 113.37 390.806 122.75C392.646 136.58 382.796 153.56 369.196 157.6C363.726 159.22 354.596 158.72 348.736 158.4H348.756Z" fill="#6464AD"/>
<path d="M224.106 167.21C219.226 170.63 204.856 178.99 199.356 179.24C198.056 179.3 187.556 175.96 185.996 175.21C167.776 166.47 148.206 141.8 135.646 125.66C121.416 107.38 113.946 87.36 104.296 66.89C113.326 62.93 122.106 58.47 131.396 55.05C178.616 37.68 221.246 38.17 268.276 55.85L293.766 66.89C286.506 82.31 279.866 100.22 270.336 114.51C261.316 128.02 236.856 158.28 224.116 167.22L224.106 167.21Z" fill="#CDB2D5"/>
<path d="M147.216 172.88C131.156 162.24 116.986 159.28 97.8663 157.6C98.3163 160.16 96.5763 159.02 95.0663 159.18C92.4563 159.47 87.8063 159.47 85.5663 160.02C84.9163 160.18 85.0463 161.56 84.4963 161.65C83.2263 161.85 82.0063 160.91 80.7463 161.06C69.9763 162.36 51.4363 180.16 47.3763 190.19C40.0763 222.86 32.0463 256.85 43.4763 289.47C52.7063 315.81 68.5663 339.73 93.1663 353.78L132.396 370.35C133.176 370.4 134.096 370.23 134.806 370.35C135.186 370.42 135.516 370.77 135.606 371.15C145.746 373.89 158.386 374.89 168.936 375.96C204.576 379.58 230.176 375.82 264.866 370.35C274.026 367.19 282.516 362.51 291.336 358.69C292.606 358.14 294.376 358.57 295.536 358.08C326.306 344.87 344.586 317.91 355.136 286.82C364.436 259.41 358.576 226.31 352.656 198.73C348.486 179.27 330.456 163.79 311.776 160.06C308.246 159.36 301.906 160.4 299.386 157.6C291.816 158.3 283.446 159.36 276.056 161.17C250.146 167.5 233.636 188.7 211.326 200.8C200.226 206.82 193.976 205.5 183.526 199.2C171.216 191.79 159.326 180.89 147.226 172.88H147.216Z" fill="#FFFDF4"/>
<path d="M14.1864 234.88C15.6564 228.42 15.1164 220.07 15.9864 213.4C18.4764 194.46 23.4364 176.08 28.0264 157.6C32.8664 158.89 43.2864 158.73 48.5264 158.44C64.9264 157.53 81.5264 156.17 97.8664 157.6C98.3164 160.16 96.5764 159.02 95.0664 159.18C92.4564 159.47 87.8064 159.47 85.5664 160.02C84.9164 160.18 85.0464 161.56 84.4964 161.65C83.2264 161.85 82.0064 160.91 80.7464 161.06C69.9764 162.36 51.4364 180.16 47.3764 190.19C40.0764 222.86 32.0464 256.85 43.4764 289.47C52.7064 315.81 68.5664 339.73 93.1664 353.78L132.396 370.35C126.356 369.98 120.506 368.5 114.466 368.44L73.7864 359.11C68.4664 355.21 63.2064 351.3 58.1564 347.05C55.8164 345.08 52.7064 340.79 50.4464 339.5C46.7364 337.38 39.7364 338.11 38.0164 332.66C37.5264 331.1 37.9964 328.86 37.4964 327.96C36.9864 327.05 33.0564 327.02 31.8164 324.37C31.1264 322.88 31.2064 320.04 30.0564 318.94C28.9564 317.9 27.0964 318.32 25.9564 317.42C23.6164 315.59 25.3264 303.77 24.7764 300.14C24.2764 296.86 21.4164 291.41 20.4164 287.64C17.3564 276.12 10.5764 255.01 11.1164 243.87C11.2864 240.32 13.4464 238.16 14.1964 234.86L14.1864 234.88Z" fill="#CDB2D5"/>
<path d="M317.675 360.16C299.955 365 282.645 367.55 264.855 370.35C274.015 367.19 282.505 362.51 291.325 358.69C292.595 358.14 294.365 358.57 295.525 358.08C326.295 344.87 344.575 317.91 355.125 286.82C364.425 259.41 358.565 226.31 352.645 198.73C348.475 179.27 330.445 163.79 311.765 160.06C308.235 159.36 301.895 160.4 299.375 157.6C315.735 156.09 332.325 157.49 348.755 158.4C354.625 158.72 363.745 159.23 369.215 157.6C373.265 172.59 377.835 187.79 380.225 203.19C381.685 212.64 381.515 222.61 382.965 231.76C383.635 236 385.745 240.05 386.125 243.85C387.095 253.72 381.205 273.34 378.455 283.63C377.155 288.48 372.895 297.83 372.485 301.78C372.085 305.54 375.005 315.49 371.605 317.71C370.515 318.42 367.295 318.48 366.925 319.05C366.425 319.82 367.185 322.88 366.065 324.81C365.215 326.27 361.835 326.59 360.825 327.8C359.435 329.47 359.685 333.86 357.635 335.84C355.415 337.98 349.165 338 346.525 339.78C345.625 340.38 345.115 342.12 343.995 343.07C337.015 349 330.105 354.53 322.675 359.89C321.795 358.75 318.875 359.81 317.695 360.13L317.675 360.16Z" fill="#CDB2D5"/>
<path d="M132.396 370.35C133.176 370.4 134.096 370.23 134.806 370.35C134.966 370.68 135.256 371.06 135.606 371.15C145.746 373.89 158.386 374.89 168.936 375.96C204.576 379.58 230.176 375.82 264.866 370.35C282.656 367.55 299.966 365 317.686 360.16C318.866 359.84 321.786 358.78 322.666 359.92C314.436 365.86 307.996 370.55 298.556 374.75C283.386 381.48 265.276 387.97 248.816 389.63C248.816 389.63 176.306 396.12 148.456 389.63C131.606 387.54 112.586 381.07 97.1059 373.95C88.5859 370.03 81.2959 364.62 73.7959 359.12L114.476 368.45C120.506 368.51 126.366 369.99 132.406 370.36L132.396 370.35Z" fill="#AB97C6"/>
<path d="M253.445 243.759C254.715 255.589 266.305 260.479 276.485 262.489C294.555 266.049 336.715 269.099 348.925 252.669C360.055 237.679 340.935 233.319 329.825 232.439C314.235 231.199 298.215 232.529 282.725 233.039C273.795 233.329 251.885 229.279 253.445 243.759ZM332.875 257.079C335.005 250.459 336.875 244.529 333.675 237.819C355.335 237.489 347.755 253.539 332.875 257.079ZM272.655 237.829C271.095 243.489 270.335 248.869 271.855 254.679C256.655 252.859 252.695 235.529 272.655 237.829Z" fill="#323156"/>
<path d="M333.675 237.829C355.335 237.499 347.755 253.549 332.875 257.089C335.005 250.469 336.875 244.539 333.675 237.829Z" fill="#FFFDF4"/>
<path d="M272.655 237.829C271.095 243.489 270.335 248.869 271.855 254.679C256.655 252.859 252.695 235.529 272.655 237.829Z" fill="#FFFDF4"/>
<path d="M138.205 254.7C144.235 248.49 146.965 235.53 136.406 233.17C131.486 232.07 117.625 232.61 111.445 232.43C98.2155 232.06 82.9955 231.38 69.9055 232.16C59.8755 232.76 39.6455 235.2 46.6155 249.89C56.0355 269.74 102.305 265.9 120.255 262.44C126.775 261.18 133.435 259.59 138.195 254.69L138.205 254.7ZM64.7255 257.08C50.0755 253.92 41.4555 237.9 63.1155 237.82C60.5255 245.06 61.5155 250.32 64.7255 257.08ZM124.945 254.67C126.645 249.14 125.455 243.42 124.945 237.82C145.305 235.33 139.905 253.89 124.945 254.67Z" fill="#323156"/>
<path d="M124.945 254.67C126.645 249.14 125.455 243.42 124.945 237.82C145.305 235.33 139.905 253.89 124.945 254.67Z" fill="#FFFDF4"/>
<path d="M63.1155 237.819C60.5255 245.059 61.5155 250.319 64.7255 257.079C50.0755 253.919 41.4555 237.899 63.1155 237.819Z" fill="#FFFDF4"/>
<path d="M166.576 303.32C172.946 306.87 181.486 307.62 187.326 311.87C195.456 317.8 197.316 320.28 207.046 314.45C209.316 313.09 210.926 310.81 213.346 309.67C217.976 307.48 225.146 306.1 229.966 303.64C237.216 299.93 235.856 293.34 232.656 287.02C221.706 265.4 197.466 253.6 177.226 271.78C170.736 277.61 154.536 296.61 166.586 303.32H166.576ZM167.776 294.46C169.176 287.72 175.406 281.89 180.166 277.54C181.216 276.58 181.716 275.01 183.256 273.81C186.576 271.23 195.116 267.2 199.286 267.35C209.686 267.72 223.876 281.8 227.966 290.91C229.006 293.23 231.796 297.81 228.036 299.33C222.446 301.58 213.896 302.66 208.596 305.58C206.696 306.63 205.246 309.74 202.946 310.42C202.456 310.57 195.086 310.72 194.686 310.61C192.266 309.94 190.556 306.29 189.256 305.55C186.316 303.87 176.976 301.1 173.246 299.87C169.586 298.66 166.426 300.94 167.776 294.46Z" fill="#323156"/>
<path d="M180.156 277.54C181.206 276.58 181.706 275.01 183.246 273.81C186.566 271.23 195.106 267.2 199.276 267.35C209.676 267.72 223.866 281.8 227.956 290.91C228.996 293.23 231.786 297.81 228.026 299.33C222.436 301.58 213.886 302.66 208.586 305.58C206.686 306.63 205.236 309.74 202.936 310.42C202.446 310.57 195.076 310.72 194.676 310.61C192.256 309.94 190.546 306.29 189.246 305.55C186.306 303.87 176.966 301.1 173.236 299.87C169.576 298.66 166.416 300.94 167.766 294.46C169.166 287.72 175.396 281.89 180.156 277.54Z" fill="#F48E9E"/>
<path d="M494.43 384.423L374.892 367.5L374.405 370.936L493.943 387.859L494.43 384.423Z" fill="white"/>
<path d="M486.886 437.571L367.348 420.647L366.861 424.083L486.399 441.007L486.886 437.571Z" fill="white"/>
<path d="M426.089 436.336C443.91 438.859 460.402 426.458 462.925 408.636C465.448 390.815 453.047 374.323 435.225 371.8C417.404 369.277 400.912 381.678 398.389 399.5C395.866 417.321 408.267 433.813 426.089 436.336Z" fill="white"/>
<path d="M415.533 375.779L409.741 379.736C398.047 389.928 395.21 407.181 403.232 420.506C404.687 422.924 406.569 424.827 408.273 427.058L367.252 421.25L374.51 369.982L415.531 375.789L415.533 375.779Z" fill="#F9B898"/>
<path d="M494.06 386.896L486.802 438.165L445.781 432.358C450.341 429.468 454.438 426.14 457.429 421.564C465.304 409.529 464.164 393.824 454.871 382.984C454.318 382.33 453.443 381.803 453.049 381.09L494.07 386.898L494.06 386.896ZM485.471 394.275C486.07 393.825 487.253 388.538 485.521 388.212C483.062 388.036 473.892 385.748 472.177 386.515C470.948 387.068 470.081 391.834 471.725 392.561C473.676 392.838 484.544 394.972 485.482 394.267L485.471 394.275Z" fill="#F9B898"/>
<path d="M494.35 384.846L449.962 378.562C449.784 378.537 447.672 376.834 447.11 376.522C438.688 371.876 431.639 370.949 422.295 373.1C421.711 373.23 419.367 374.231 419.199 374.207L374.812 367.923L375.455 363.378C375.489 363.141 376.886 361.117 377.183 360.805C379.053 358.797 381.769 358.162 384.44 358.267L417.186 362.812C418.131 362.633 422.934 354.031 424.711 353.324L450.001 356.813C450.716 357.116 451.1 357.686 451.44 358.35C452.89 361.161 453.452 365.402 455.079 368.177L487.8 372.9C490.386 373.539 492.818 374.904 494.067 377.353C494.264 377.744 495.045 380.077 495.013 380.305L494.369 384.849L494.35 384.846ZM444.313 359.896L430.119 357.715C429.058 357.999 428.437 362.89 429.227 363.517C430.451 364.499 440.838 364.898 443.084 365.58C444.319 365.351 444.691 361.01 444.313 359.896ZM405.679 367.617C405.808 366.706 405.171 365.858 404.26 365.729C403.349 365.6 402.501 366.238 402.372 367.149C402.243 368.06 402.881 368.907 403.792 369.036C404.703 369.165 405.55 368.528 405.679 367.617ZM410.365 368.26C410.494 367.349 409.865 366.513 408.955 366.384C408.044 366.255 407.207 366.884 407.078 367.795C406.949 368.706 407.578 369.542 408.489 369.671C409.4 369.8 410.236 369.171 410.365 368.26Z" fill="#F26D70"/>
<path d="M486.51 440.225L485.908 444.472C485.505 447.324 480.135 450.442 477.263 449.682L372.646 434.871C369.9 434.361 365.957 430.399 366.361 427.547L366.962 423.3L411.646 429.626C411.775 429.644 413.311 430.922 413.77 431.179C421.344 435.392 428.738 437.096 437.377 435.289C438.231 435.107 441.598 433.866 441.835 433.9L486.52 440.226L486.51 440.225Z" fill="#F26D70"/>
<path d="M460.282 408.182C457.966 424.539 442.833 435.909 426.486 433.595C410.139 431.281 398.758 416.146 401.072 399.799C403.387 383.452 418.521 372.071 434.868 374.386C451.215 376.7 462.596 391.835 460.282 408.182ZM455.774 407.564C457.737 393.702 448.09 380.873 434.228 378.91C420.366 376.948 407.537 386.595 405.575 400.457C403.612 414.318 413.259 427.147 427.121 429.11C440.983 431.072 453.812 421.425 455.774 407.564Z" fill="#F26D70"/>
<path d="M395.624 355.387C396.203 355.297 403.264 356.287 403.725 356.524C404.752 357.043 404.408 360.186 402.945 360.251C402.112 360.285 395.727 359.371 395.101 359.08C393.982 358.568 394.407 355.568 395.624 355.387Z" fill="#E35052"/>
<path d="M485.47 394.275C484.532 394.981 473.665 392.836 471.713 392.57C470.069 391.842 470.947 387.068 472.165 386.524C473.88 385.757 483.05 388.044 485.509 388.221C487.241 388.547 486.068 393.835 485.459 394.284L485.47 394.275Z" fill="#E35052"/>
<path d="M444.313 359.897C444.691 361.011 444.318 365.351 443.084 365.581C440.828 364.898 430.451 364.499 429.226 363.518C428.446 362.892 429.058 358 430.119 357.716L444.313 359.897Z" fill="#E35052"/>
<path d="M403.792 369.036C404.705 369.166 405.55 368.53 405.679 367.617C405.809 366.704 405.173 365.858 404.26 365.729C403.347 365.6 402.502 366.235 402.372 367.149C402.243 368.062 402.879 368.907 403.792 369.036Z" fill="white"/>
<path d="M408.49 369.671C409.397 369.8 410.238 369.168 410.366 368.26C410.495 367.353 409.863 366.513 408.955 366.384C408.047 366.256 407.207 366.887 407.079 367.795C406.95 368.703 407.582 369.543 408.49 369.671Z" fill="white"/>
<path d="M455.775 407.564C453.812 421.426 440.983 431.073 427.122 429.11C413.26 427.148 403.613 414.319 405.575 400.457C407.538 386.595 420.367 376.948 434.229 378.911C448.09 380.873 457.737 393.702 455.775 407.564ZM451.461 406.933C453.085 395.457 445.096 384.833 433.62 383.208C422.145 381.583 411.52 389.573 409.895 401.048C408.271 412.524 416.26 423.149 427.736 424.774C439.211 426.398 449.836 418.409 451.461 406.933Z" fill="white"/>
<path d="M440.453 418.262C441.558 418.418 442.58 417.649 442.736 416.545C442.893 415.44 442.124 414.418 441.02 414.262C439.915 414.105 438.893 414.874 438.736 415.979C438.58 417.083 439.349 418.105 440.453 418.262Z" fill="white"/>
<path d="M427.725 424.771C439.203 426.396 449.825 418.409 451.45 406.931C453.075 395.453 445.088 384.831 433.61 383.206C422.132 381.581 411.51 389.568 409.885 401.046C408.26 412.524 416.247 423.146 427.725 424.771Z" fill="#5B5B5B"/>
</svg>
