<?xml version="1.0" encoding="utf-8"?>
<!-- Generator: Adobe Illustrator 26.2.1, SVG Export Plug-In . SVG Version: 6.00 Build 0)  -->
<svg version="1.1" id="paytrie-lockup-horizontal" xmlns="http://www.w3.org/2000/svg" xmlns:xlink="http://www.w3.org/1999/xlink"
	 x="0px" y="0px" viewBox="0 0 1000 402.53" style="enable-background:new 0 0 1000 402.53;" xml:space="preserve">
<path d="M102.6,146.98l102.18-44.71v25.55L102.6,172.53V146.98z M102.6,223.62l102.18-44.71v-25.55L102.6,198.07V223.62z
	 M102.6,274.71l102.18-44.71v-25.55L102.6,249.17V274.71z M306.97,172.53l-102.18-44.71v25.55l102.18,44.71V172.53z M306.97,223.62
	l-102.18-44.71v25.55l102.18,44.71V223.62z M306.97,274.71l-102.18-44.71v25.55l102.18,44.71V274.71z M411.36,169.19
	c-13.33,0-23.55,5.54-29.78,15.24h-1.73v-11.95h-19.74v127.78h19.74v-51.42h1.73c6.23,9.52,16.97,14.72,29.95,14.72
	c24.93,0,43.8-19.56,43.8-47.09C455.34,188.76,436.29,169.19,411.36,169.19z M407.38,186.33c16.27,0,28.22,12.99,28.22,30.13
	c0,16.79-11.77,29.95-28.22,29.95c-16.45,0-28.39-13.16-28.39-29.95C378.98,199.49,390.93,186.33,407.38,186.33z M502.42,263.55
	c13.85,0,23.55-6.06,30.99-16.45h1.73v13.33h19.74v-87.95h-19.74v13.5h-1.73c-7.44-10.56-17.14-16.79-30.99-16.79
	c-25.45,0-43.63,19.56-43.63,47.27S476.8,263.55,502.42,263.55z M506.75,246.41c-16.45,0-28.39-12.64-28.39-29.95
	c0-17.49,11.95-30.13,28.39-30.13c16.45,0,28.22,12.64,28.22,30.13C534.97,233.77,523.2,246.41,506.75,246.41z M737.38,260.44
	v-46.23c0-15.76,8.48-26.32,20.78-26.32c3.29,0,8.83,0.87,13.68,2.77v-17.83c-2.6-1.39-6.58-2.08-10.39-2.08
	c-9.35,0-18.7,5.37-22.68,13.33h-1.73v-11.6h-19.22v87.95H737.38z M788.21,164.95c7.62,0,12.81-5.19,12.81-12.64
	c0-7.27-5.19-12.47-12.81-12.47c-7.44,0-12.64,5.19-12.64,12.47C775.57,159.76,780.76,164.95,788.21,164.95z M798.08,260.44v-87.95
	h-19.56v87.95H798.08z M851.35,263.55c20.26,0,36.53-9,42.94-24.24l-16.45-6.23c-4.85,9-14.37,14.54-25.8,14.54
	c-15.41,0-26.32-9.87-28.39-25.1h73.58c0.17-2.08,0.17-4.85,0.17-6.93c0-27.18-19.39-46.4-46.75-46.4
	c-27.53,0-47.27,19.22-47.27,46.23C803.39,243.64,823.3,263.55,851.35,263.55z M823.64,207.98c2.42-13.68,12.64-22.85,26.49-22.85
	c14.2,0,24.76,9.35,27.01,22.85H823.64z M710.72,246.41v14.72c-4.5,1.56-10.91,2.42-15.58,2.42c-16.1,0-26.49-11.25-26.49-28.22
	V187.2h-18.67l5.59-14.72H669l0-30.37h19.39l-0.17,30.37h21.47v14.72h-21.47v47.27c0,7.79,4.85,13.33,12.81,13.33
	C703.45,247.8,707.61,247.28,710.72,246.41z M597.1,260.78l-40.17-88.3h20.78l27.01,62.85h1.73l22.51-62.85h20.6l-48.53,127.78
	h-20.42L597.1,260.78z"/>
</svg>
